<?xml version="1.0" standalone="yes"?>

<svg version="1.1" viewBox="0.0 0.0 1152.0 864.0" fill="none" stroke="none" stroke-linecap="square" stroke-miterlimit="10" xmlns="http://www.w3.org/2000/svg" xmlns:xlink="http://www.w3.org/1999/xlink"><path d="M112.0 24.0L1008.0 24.0L1008.0 64.0L112.0 64.0Z" fill-rule="nonzero" stroke="#000000" stroke-width="1.0" stroke-linejoin="round" stroke-linecap="butt"></path><path d="M525.28125 36.90625L527.0781 36.90625L527.0781 44.75Q527.0781 46.8125 526.6172 48.015625Q526.15625 49.21875 524.9453 49.976562Q523.7344 50.734375 521.7656 50.734375Q519.8594 50.734375 518.6406 50.078125Q517.4219 49.421875 516.90625 48.171875Q516.3906 46.921875 516.3906 44.75L516.3906 36.90625L518.1875 36.90625L518.1875 44.75Q518.1875 46.515625 518.5156 47.359375Q518.84375 48.203125 519.64844 48.65625Q520.4531 49.109375 521.6094 49.109375Q523.59375 49.109375 524.4375 48.210938Q525.28125 47.3125 525.28125 44.75L525.28125 36.90625ZM529.625 54.28125L529.625 40.640625L531.15625 40.640625L531.15625 41.921875Q531.6875 41.171875 532.3672 40.796875Q533.0469 40.421875 534.0 40.421875Q535.2656 40.421875 536.2344 41.070312Q537.2031 41.71875 537.6953 42.90625Q538.1875 44.09375 538.1875 45.5Q538.1875 47.015625 537.6406 48.226562Q537.09375 49.4375 536.0625 50.078125Q535.03125 50.71875 533.8906 50.71875Q533.0469 50.71875 532.3828 50.367188Q531.71875 50.015625 531.2969 49.484375L531.2969 54.28125L529.625 54.28125ZM531.1406 45.625Q531.1406 47.53125 531.91406 48.4375Q532.6875 49.34375 533.78125 49.34375Q534.8906 49.34375 535.6797 48.40625Q536.46875 47.46875 536.46875 45.484375Q536.46875 43.609375 535.6953 42.671875Q534.9219 41.734375 533.84375 41.734375Q532.78125 41.734375 531.96094 42.734375Q531.1406 43.734375 531.1406 45.625ZM539.3281 47.5625L540.9844 47.296875Q541.125 48.296875 541.7578 48.820312Q542.3906 49.34375 543.53125 49.34375Q544.6875 49.34375 545.2422 48.875Q545.7969 48.40625 545.7969 47.78125Q545.7969 47.21875 545.3125 46.890625Q544.96875 46.671875 543.6094 46.328125Q541.7656 45.859375 541.0547 45.523438Q540.34375 45.1875 539.97656 44.585938Q539.6094 43.984375 539.6094 43.265625Q539.6094 42.609375 539.91406 42.046875Q540.21875 41.484375 540.7344 41.109375Q541.125 40.828125 541.7969 40.625Q542.46875 40.421875 543.2344 40.421875Q544.40625 40.421875 545.28125 40.757812Q546.15625 41.09375 546.5703 41.664062Q546.9844 42.234375 547.1406 43.1875L545.5156 43.40625Q545.40625 42.65625 544.8672 42.226562Q544.3281 41.796875 543.3594 41.796875Q542.2031 41.796875 541.71875 42.179688Q541.2344 42.5625 541.2344 43.0625Q541.2344 43.390625 541.4375 43.65625Q541.6406 43.921875 542.0781 44.09375Q542.3281 44.1875 543.5469 44.53125Q545.3125 45.0 546.0156 45.296875Q546.71875 45.59375 547.1172 46.171875Q547.5156 46.75 547.5156 47.609375Q547.5156 48.4375 547.03125 49.179688Q546.5469 49.921875 545.625 50.320312Q544.7031 50.71875 543.5469 50.71875Q541.625 50.71875 540.6172 49.921875Q539.6094 49.125 539.3281 47.5625ZM552.9844 49.0L553.21875 50.484375Q552.5156 50.625 551.9531 50.625Q551.0469 50.625 550.5469 50.335938Q550.0469 50.046875 549.84375 49.585938Q549.6406 49.125 549.6406 47.609375L549.6406 41.953125L548.40625 41.953125L548.40625 40.640625L549.6406 40.640625L549.6406 38.203125L551.2969 37.203125L551.2969 40.640625L552.9844 40.640625L552.9844 41.953125L551.2969 41.953125L551.2969 47.703125Q551.2969 48.421875 551.3828 48.625Q551.46875 48.828125 551.6719 48.953125Q551.875 49.078125 552.25 49.078125Q552.5156 49.078125 552.9844 49.0ZM554.4844 50.5L554.4844 40.640625L555.9844 40.640625L555.9844 42.140625Q556.5625 41.09375 557.0469 40.757812Q557.53125 40.421875 558.125 40.421875Q558.96875 40.421875 559.84375 40.96875L559.2656 42.515625Q558.65625 42.15625 558.03125 42.15625Q557.4844 42.15625 557.0547 42.484375Q556.625 42.8125 556.4375 43.390625Q556.15625 44.28125 556.15625 45.34375L556.15625 50.5L554.4844 50.5ZM567.46875 47.328125L569.1875 47.546875Q568.78125 49.046875 567.6797 49.882812Q566.5781 50.71875 564.8594 50.71875Q562.7031 50.71875 561.4375 49.390625Q560.1719 48.0625 560.1719 45.65625Q560.1719 43.171875 561.4453 41.796875Q562.71875 40.421875 564.7656 40.421875Q566.75 40.421875 568.0 41.765625Q569.25 43.109375 569.25 45.5625Q569.25 45.703125 569.2344 46.0L561.8906 46.0Q561.9844 47.625 562.8125 48.484375Q563.6406 49.34375 564.875 49.34375Q565.78125 49.34375 566.4297 48.867188Q567.0781 48.390625 567.46875 47.328125ZM561.9844 44.625L567.4844 44.625Q567.375 43.390625 566.8594 42.765625Q566.0625 41.796875 564.78125 41.796875Q563.6406 41.796875 562.85156 42.570312Q562.0625 43.34375 561.9844 44.625ZM577.53125 49.28125Q576.59375 50.078125 575.7344 50.398438Q574.875 50.71875 573.8906 50.71875Q572.28125 50.71875 571.40625 49.929688Q570.53125 49.140625 570.53125 47.90625Q570.53125 47.171875 570.8594 46.578125Q571.1875 45.984375 571.71875 45.625Q572.25 45.265625 572.9219 45.078125Q573.4219 44.9375 574.40625 44.828125Q576.4375 44.578125 577.3906 44.25Q577.3906 43.90625 577.3906 43.8125Q577.3906 42.796875 576.9219 42.375Q576.28125 41.8125 575.0156 41.8125Q573.84375 41.8125 573.28125 42.21875Q572.71875 42.625 572.4531 43.6875L570.8125 43.453125Q571.0469 42.40625 571.5547 41.765625Q572.0625 41.125 573.02344 40.773438Q573.9844 40.421875 575.2656 40.421875Q576.53125 40.421875 577.3125 40.71875Q578.09375 41.015625 578.46875 41.46875Q578.84375 41.921875 578.9844 42.609375Q579.0781 43.03125 579.0781 44.140625L579.0781 46.375Q579.0781 48.703125 579.1797 49.320312Q579.28125 49.9375 579.6094 50.5L577.8594 50.5Q577.59375 49.984375 577.53125 49.28125ZM577.3906 45.5625Q576.4844 45.921875 574.65625 46.1875Q573.625 46.328125 573.2031 46.515625Q572.78125 46.703125 572.5469 47.0625Q572.3125 47.421875 572.3125 47.859375Q572.3125 48.53125 572.8203 48.976562Q573.3281 49.421875 574.2969 49.421875Q575.2656 49.421875 576.0156 48.992188Q576.7656 48.5625 577.125 47.84375Q577.3906 47.265625 577.3906 46.171875L577.3906 45.5625ZM581.46875 50.5L581.46875 40.640625L582.96875 40.640625L582.96875 42.03125Q583.4219 41.3125 584.1953 40.867188Q584.96875 40.421875 585.9531 40.421875Q587.0469 40.421875 587.75 40.875Q588.4531 41.328125 588.7344 42.15625Q589.90625 40.421875 591.78125 40.421875Q593.25 40.421875 594.03906 41.234375Q594.8281 42.046875 594.8281 43.734375L594.8281 50.5L593.15625 50.5L593.15625 44.296875Q593.15625 43.296875 593.0 42.851562Q592.84375 42.40625 592.41406 42.140625Q591.9844 41.875 591.40625 41.875Q590.375 41.875 589.6875 42.5625Q589.0 43.25 589.0 44.78125L589.0 50.5L587.3281 50.5L587.3281 44.09375Q587.3281 42.984375 586.9219 42.429688Q586.5156 41.875 585.5781 41.875Q584.875 41.875 584.27344 42.242188Q583.6719 42.609375 583.40625 43.328125Q583.1406 44.046875 583.1406 45.390625L583.1406 50.5L581.46875 50.5ZM596.34375 47.5625L598.0 47.296875Q598.1406 48.296875 598.77344 48.820312Q599.40625 49.34375 600.5469 49.34375Q601.7031 49.34375 602.2578 48.875Q602.8125 48.40625 602.8125 47.78125Q602.8125 47.21875 602.3281 46.890625Q601.9844 46.671875 600.625 46.328125Q598.78125 45.859375 598.0703 45.523438Q597.3594 45.1875 596.9922 44.585938Q596.625 43.984375 596.625 43.265625Q596.625 42.609375 596.9297 42.046875Q597.2344 41.484375 597.75 41.109375Q598.1406 40.828125 598.8125 40.625Q599.4844 40.421875 600.25 40.421875Q601.4219 40.421875 602.2969 40.757812Q603.1719 41.09375 603.58594 41.664062Q604.0 42.234375 604.15625 43.1875L602.53125 43.40625Q602.4219 42.65625 601.8828 42.226562Q601.34375 41.796875 600.375 41.796875Q599.21875 41.796875 598.7344 42.179688Q598.25 42.5625 598.25 43.0625Q598.25 43.390625 598.4531 43.65625Q598.65625 43.921875 599.09375 44.09375Q599.34375 44.1875 600.5625 44.53125Q602.3281 45.0 603.03125 45.296875Q603.7344 45.59375 604.1328 46.171875Q604.53125 46.75 604.53125 47.609375Q604.53125 48.4375 604.0469 49.179688Q603.5625 49.921875 602.6406 50.320312Q601.71875 50.71875 600.5625 50.71875Q598.6406 50.71875 597.6328 49.921875Q596.625 49.125 596.34375 47.5625Z" fill-rule="nonzero" fill="#000000"></path><path d="M112.0 64.0L256.0 64.0L256.0 104.0L112.0 104.0Z" fill-rule="nonzero" stroke="#000000" stroke-width="1.0" stroke-linejoin="round" stroke-linecap="butt"></path><path d="M158.42188 90.5L158.42188 76.90625L160.21875 76.90625L160.21875 83.640625L166.98438 76.90625L169.42188 76.90625L163.71875 82.40625L169.67188 90.5L167.29688 90.5L162.45312 83.609375L160.21875 85.78125L160.21875 90.5L158.42188 90.5ZM177.46875 87.328125L179.1875 87.546875Q178.78125 89.046875 177.67969 89.88281Q176.57812 90.71875 174.85938 90.71875Q172.70312 90.71875 171.4375 89.390625Q170.17188 88.0625 170.17188 85.65625Q170.17188 83.171875 171.44531 81.796875Q172.71875 80.421875 174.76562 80.421875Q176.75 80.421875 178.0 81.765625Q179.25 83.109375 179.25 85.5625Q179.25 85.703125 179.23438 86.0L171.89062 86.0Q171.98438 87.625 172.8125 88.484375Q173.64062 89.34375 174.875 89.34375Q175.78125 89.34375 176.42969 88.86719Q177.07812 88.390625 177.46875 87.328125ZM171.98438 84.625L177.48438 84.625Q177.375 83.390625 176.85938 82.765625Q176.0625 81.796875 174.78125 81.796875Q173.64062 81.796875 172.85156 82.57031Q172.0625 83.34375 171.98438 84.625ZM181.07812 90.5L181.07812 80.640625L182.57812 80.640625L182.57812 82.140625Q183.15625 81.09375 183.64062 80.75781Q184.125 80.421875 184.71875 80.421875Q185.5625 80.421875 186.4375 80.96875L185.85938 82.515625Q185.25 82.15625 184.625 82.15625Q184.07812 82.15625 183.64844 82.484375Q183.21875 82.8125 183.03125 83.390625Q182.75 84.28125 182.75 85.34375L182.75 90.5L181.07812 90.5ZM187.3125 90.5L187.3125 80.640625L188.8125 80.640625L188.8125 82.046875Q189.90625 80.421875 191.95312 80.421875Q192.84375 80.421875 193.59375 80.74219Q194.34375 81.0625 194.71094 81.58594Q195.07812 82.109375 195.23438 82.8125Q195.32812 83.28125 195.32812 84.4375L195.32812 90.5L193.65625 90.5L193.65625 84.5Q193.65625 83.484375 193.46094 82.97656Q193.26562 82.46875 192.76562 82.171875Q192.26562 81.875 191.59375 81.875Q190.53125 81.875 189.75781 82.546875Q188.98438 83.21875 188.98438 85.125L188.98438 90.5L187.3125 90.5ZM204.4375 87.328125L206.15625 87.546875Q205.75 89.046875 204.64844 89.88281Q203.54688 90.71875 201.82812 90.71875Q199.67188 90.71875 198.40625 89.390625Q197.14062 88.0625 197.14062 85.65625Q197.14062 83.171875 198.41406 81.796875Q199.6875 80.421875 201.73438 80.421875Q203.71875 80.421875 204.96875 81.765625Q206.21875 83.109375 206.21875 85.5625Q206.21875 85.703125 206.20312 86.0L198.85938 86.0Q198.95312 87.625 199.78125 88.484375Q200.60938 89.34375 201.84375 89.34375Q202.75 89.34375 203.39844 88.86719Q204.04688 88.390625 204.4375 87.328125ZM198.95312 84.625L204.45312 84.625Q204.34375 83.390625 203.82812 82.765625Q203.03125 81.796875 201.75 81.796875Q200.60938 81.796875 199.82031 82.57031Q199.03125 83.34375 198.95312 84.625ZM208.03125 90.5L208.03125 76.90625L209.70312 76.90625L209.70312 90.5L208.03125 90.5Z" fill-rule="nonzero" fill="#000000"></path><path d="M256.0 64.0L376.0 64.0L376.0 104.0L256.0 104.0Z" fill-rule="nonzero" stroke="#000000" stroke-width="1.0" stroke-linejoin="round" stroke-linecap="butt"></path><path d="M309.84375 90.5L315.10938 83.40625L310.46875 76.90625L312.60938 76.90625L315.07812 80.390625Q315.85938 81.46875 316.17188 82.0625Q316.625 81.3125 317.25 80.515625L319.98438 76.90625L321.95312 76.90625L317.17188 83.3125L322.3125 90.5L320.09375 90.5L316.67188 85.640625Q316.375 85.234375 316.07812 84.734375Q315.625 85.484375 315.42188 85.765625L312.01562 90.5L309.84375 90.5Z" fill-rule="nonzero" fill="#000000"></path><path d="M376.0 64.0L504.0 64.0L504.0 104.0L376.0 104.0Z" fill-rule="nonzero" stroke="#000000" stroke-width="1.0" stroke-linejoin="round" stroke-linecap="butt"></path><path d="M412.57812 85.171875L412.57812 83.5625L418.34375 83.5625L418.34375 88.609375Q417.01562 89.671875 415.60156 90.203125Q414.1875 90.734375 412.70312 90.734375Q410.70312 90.734375 409.0703 89.875Q407.4375 89.015625 406.60156 87.390625Q405.76562 85.765625 405.76562 83.765625Q405.76562 81.78125 406.59375 80.0625Q407.42188 78.34375 408.98438 77.50781Q410.54688 76.671875 412.57812 76.671875Q414.04688 76.671875 415.2422 77.14844Q416.4375 77.625 417.10938 78.47656Q417.78125 79.328125 418.14062 80.703125L416.51562 81.140625Q416.20312 80.109375 415.75 79.515625Q415.29688 78.921875 414.45312 78.5625Q413.60938 78.203125 412.57812 78.203125Q411.34375 78.203125 410.4453 78.578125Q409.54688 78.953125 408.9922 79.57031Q408.4375 80.1875 408.14062 80.921875Q407.60938 82.171875 407.60938 83.65625Q407.60938 85.46875 408.2422 86.69531Q408.875 87.921875 410.0703 88.515625Q411.26562 89.109375 412.60938 89.109375Q413.78125 89.109375 414.89062 88.65625Q416.0 88.203125 416.57812 87.703125L416.57812 85.171875L412.57812 85.171875ZM420.71875 90.5L420.71875 76.90625L422.5625 76.90625L429.70312 87.578125L429.70312 76.90625L431.42188 76.90625L431.42188 90.5L429.57812 90.5L422.4375 79.8125L422.4375 90.5L420.71875 90.5ZM433.65625 83.875Q433.65625 80.484375 435.47656 78.57031Q437.29688 76.65625 440.17188 76.65625Q442.04688 76.65625 443.5625 77.55469Q445.07812 78.453125 445.8672 80.0625Q446.65625 81.671875 446.65625 83.71875Q446.65625 85.78125 445.8203 87.41406Q444.98438 89.046875 443.45312 89.890625Q441.92188 90.734375 440.15625 90.734375Q438.23438 90.734375 436.72656 89.80469Q435.21875 88.875 434.4375 87.27344Q433.65625 85.671875 433.65625 83.875ZM435.51562 83.90625Q435.51562 86.359375 436.83594 87.77344Q438.15625 89.1875 440.14062 89.1875Q442.17188 89.1875 443.48438 87.75781Q444.79688 86.328125 444.79688 83.703125Q444.79688 82.046875 444.2422 80.8125Q443.6875 79.578125 442.60156 78.890625Q441.51562 78.203125 440.17188 78.203125Q438.26562 78.203125 436.89062 79.515625Q435.51562 80.828125 435.51562 83.90625ZM448.65625 90.5L448.65625 76.90625L451.375 76.90625L454.59375 86.53125Q455.03125 87.875 455.23438 88.546875Q455.46875 87.796875 455.96875 86.359375L459.21875 76.90625L461.64062 76.90625L461.64062 90.5L459.90625 90.5L459.90625 79.109375L455.95312 90.5L454.32812 90.5L450.39062 78.921875L450.39062 90.5L448.65625 90.5ZM464.28125 90.5L464.28125 76.90625L474.125 76.90625L474.125 78.5L466.07812 78.5L466.07812 82.671875L473.60938 82.671875L473.60938 84.265625L466.07812 84.265625L466.07812 88.890625L474.4375 88.890625L474.4375 90.5L464.28125 90.5Z" fill-rule="nonzero" fill="#000000"></path><path d="M504.0 64.0L632.0 64.0L632.0 104.0L504.0 104.0Z" fill-rule="nonzero" stroke="#000000" stroke-width="1.0" stroke-linejoin="round" stroke-linecap="butt"></path><path d="M550.2031 90.5L550.2031 76.90625L552.0 76.90625L552.0 83.640625L558.7656 76.90625L561.2031 76.90625L555.5 82.40625L561.4531 90.5L559.0781 90.5L554.2344 83.609375L552.0 85.78125L552.0 90.5L550.2031 90.5ZM562.71875 90.5L562.71875 76.90625L567.40625 76.90625Q568.9844 76.90625 569.8281 77.09375Q570.9844 77.359375 571.8125 78.0625Q572.8906 78.984375 573.4219 80.39844Q573.9531 81.8125 573.9531 83.625Q573.9531 85.171875 573.59375 86.36719Q573.2344 87.5625 572.6719 88.35156Q572.1094 89.140625 571.4375 89.58594Q570.7656 90.03125 569.8125 90.265625Q568.8594 90.5 567.625 90.5L562.71875 90.5ZM564.5156 88.890625L567.4219 88.890625Q568.7656 88.890625 569.53125 88.640625Q570.2969 88.390625 570.75 87.9375Q571.3906 87.296875 571.75 86.21875Q572.1094 85.140625 572.1094 83.59375Q572.1094 81.46875 571.40625 80.32031Q570.7031 79.171875 569.7031 78.78125Q568.9844 78.5 567.375 78.5L564.5156 78.5L564.5156 88.890625ZM576.2344 90.5L576.2344 76.90625L586.0781 76.90625L586.0781 78.5L578.03125 78.5L578.03125 82.671875L585.5625 82.671875L585.5625 84.265625L578.03125 84.265625L578.03125 88.890625L586.3906 88.890625L586.3906 90.5L576.2344 90.5Z" fill-rule="nonzero" fill="#000000"></path><path d="M632.0 64.0L768.0 64.0L768.0 104.0L632.0 104.0Z" fill-rule="nonzero" stroke="#000000" stroke-width="1.0" stroke-linejoin="round" stroke-linecap="butt"></path><path d="M677.5781 83.875Q677.5781 80.484375 679.39844 78.57031Q681.21875 76.65625 684.09375 76.65625Q685.96875 76.65625 687.4844 77.55469Q689.0 78.453125 689.78906 80.0625Q690.5781 81.671875 690.5781 83.71875Q690.5781 85.78125 689.7422 87.41406Q688.90625 89.046875 687.375 89.890625Q685.84375 90.734375 684.0781 90.734375Q682.15625 90.734375 680.64844 89.80469Q679.1406 88.875 678.3594 87.27344Q677.5781 85.671875 677.5781 83.875ZM679.4375 83.90625Q679.4375 86.359375 680.7578 87.77344Q682.0781 89.1875 684.0625 89.1875Q686.09375 89.1875 687.40625 87.75781Q688.71875 86.328125 688.71875 83.703125Q688.71875 82.046875 688.16406 80.8125Q687.6094 79.578125 686.52344 78.890625Q685.4375 78.203125 684.09375 78.203125Q682.1875 78.203125 680.8125 79.515625Q679.4375 80.828125 679.4375 83.90625ZM696.0781 89.0L696.3125 90.484375Q695.6094 90.625 695.0469 90.625Q694.1406 90.625 693.6406 90.33594Q693.1406 90.046875 692.9375 89.58594Q692.7344 89.125 692.7344 87.609375L692.7344 81.953125L691.5 81.953125L691.5 80.640625L692.7344 80.640625L692.7344 78.203125L694.3906 77.203125L694.3906 80.640625L696.0781 80.640625L696.0781 81.953125L694.3906 81.953125L694.3906 87.703125Q694.3906 88.421875 694.47656 88.625Q694.5625 88.828125 694.7656 88.953125Q694.96875 89.078125 695.34375 89.078125Q695.6094 89.078125 696.0781 89.0ZM697.6094 90.5L697.6094 76.90625L699.28125 76.90625L699.28125 81.78125Q700.4531 80.421875 702.2344 80.421875Q703.3281 80.421875 704.1328 80.85156Q704.9375 81.28125 705.28906 82.046875Q705.6406 82.8125 705.6406 84.25L705.6406 90.5L703.96875 90.5L703.96875 84.25Q703.96875 83.0 703.4219 82.42969Q702.875 81.859375 701.8906 81.859375Q701.1406 81.859375 700.4922 82.24219Q699.84375 82.625 699.5625 83.28906Q699.28125 83.953125 699.28125 85.109375L699.28125 90.5L697.6094 90.5ZM714.7344 87.328125L716.4531 87.546875Q716.0469 89.046875 714.9453 89.88281Q713.84375 90.71875 712.125 90.71875Q709.96875 90.71875 708.7031 89.390625Q707.4375 88.0625 707.4375 85.65625Q707.4375 83.171875 708.71094 81.796875Q709.9844 80.421875 712.03125 80.421875Q714.0156 80.421875 715.2656 81.765625Q716.5156 83.109375 716.5156 85.5625Q716.5156 85.703125 716.5 86.0L709.15625 86.0Q709.25 87.625 710.0781 88.484375Q710.90625 89.34375 712.1406 89.34375Q713.0469 89.34375 713.6953 88.86719Q714.34375 88.390625 714.7344 87.328125ZM709.25 84.625L714.75 84.625Q714.6406 83.390625 714.125 82.765625Q713.3281 81.796875 712.0469 81.796875Q710.90625 81.796875 710.1172 82.57031Q709.3281 83.34375 709.25 84.625ZM718.34375 90.5L718.34375 80.640625L719.84375 80.640625L719.84375 82.140625Q720.4219 81.09375 720.90625 80.75781Q721.3906 80.421875 721.9844 80.421875Q722.8281 80.421875 723.7031 80.96875L723.125 82.515625Q722.5156 82.15625 721.8906 82.15625Q721.34375 82.15625 720.91406 82.484375Q720.4844 82.8125 720.2969 83.390625Q720.0156 84.28125 720.0156 85.34375L720.0156 90.5L718.34375 90.5Z" fill-rule="nonzero" fill="#000000"></path><path d="M768.0 64.0L888.0 64.0L888.0 104.0L768.0 104.0Z" fill-rule="nonzero" stroke="#000000" stroke-width="1.0" stroke-linejoin="round" stroke-linecap="butt"></path><path d="M797.6719 85.734375L799.46875 86.1875Q798.90625 88.40625 797.4375 89.57031Q795.96875 90.734375 793.84375 90.734375Q791.6406 90.734375 790.2656 89.83594Q788.8906 88.9375 788.1719 87.24219Q787.4531 85.546875 787.4531 83.59375Q787.4531 81.46875 788.2578 79.890625Q789.0625 78.3125 790.5625 77.49219Q792.0625 76.671875 793.8594 76.671875Q795.90625 76.671875 797.2969 77.71094Q798.6875 78.75 799.2344 80.625L797.46875 81.046875Q797.0 79.5625 796.09375 78.88281Q795.1875 78.203125 793.8281 78.203125Q792.2656 78.203125 791.21094 78.953125Q790.15625 79.703125 789.72656 80.97656Q789.2969 82.25 789.2969 83.59375Q789.2969 85.328125 789.8047 86.61719Q790.3125 87.90625 791.3828 88.546875Q792.4531 89.1875 793.6875 89.1875Q795.2031 89.1875 796.25 88.32031Q797.2969 87.453125 797.6719 85.734375ZM807.6719 89.28125Q806.7344 90.078125 805.875 90.39844Q805.0156 90.71875 804.03125 90.71875Q802.4219 90.71875 801.5469 89.92969Q800.6719 89.140625 800.6719 87.90625Q800.6719 87.171875 801.0 86.578125Q801.3281 85.984375 801.8594 85.625Q802.3906 85.265625 803.0625 85.078125Q803.5625 84.9375 804.5469 84.828125Q806.5781 84.578125 807.53125 84.25Q807.53125 83.90625 807.53125 83.8125Q807.53125 82.796875 807.0625 82.375Q806.4219 81.8125 805.15625 81.8125Q803.9844 81.8125 803.4219 82.21875Q802.8594 82.625 802.59375 83.6875L800.9531 83.453125Q801.1875 82.40625 801.6953 81.765625Q802.2031 81.125 803.16406 80.77344Q804.125 80.421875 805.40625 80.421875Q806.6719 80.421875 807.4531 80.71875Q808.2344 81.015625 808.6094 81.46875Q808.9844 81.921875 809.125 82.609375Q809.21875 83.03125 809.21875 84.140625L809.21875 86.375Q809.21875 88.703125 809.3203 89.32031Q809.4219 89.9375 809.75 90.5L808.0 90.5Q807.7344 89.984375 807.6719 89.28125ZM807.53125 85.5625Q806.625 85.921875 804.7969 86.1875Q803.7656 86.328125 803.34375 86.515625Q802.9219 86.703125 802.6875 87.0625Q802.4531 87.421875 802.4531 87.859375Q802.4531 88.53125 802.96094 88.97656Q803.46875 89.421875 804.4375 89.421875Q805.40625 89.421875 806.15625 88.99219Q806.90625 88.5625 807.2656 87.84375Q807.53125 87.265625 807.53125 86.171875L807.53125 85.5625ZM811.6094 90.5L811.6094 80.640625L813.1094 80.640625L813.1094 82.046875Q814.2031 80.421875 816.25 80.421875Q817.1406 80.421875 817.8906 80.74219Q818.6406 81.0625 819.0078 81.58594Q819.375 82.109375 819.53125 82.8125Q819.625 83.28125 819.625 84.4375L819.625 90.5L817.9531 90.5L817.9531 84.5Q817.9531 83.484375 817.7578 82.97656Q817.5625 82.46875 817.0625 82.171875Q816.5625 81.875 815.8906 81.875Q814.8281 81.875 814.0547 82.546875Q813.28125 83.21875 813.28125 85.125L813.28125 90.5L811.6094 90.5ZM821.3594 85.578125Q821.3594 82.84375 822.8906 81.515625Q824.15625 80.421875 825.9844 80.421875Q828.0156 80.421875 829.3047 81.75781Q830.59375 83.09375 830.59375 85.4375Q830.59375 87.34375 830.02344 88.42969Q829.4531 89.515625 828.3672 90.11719Q827.28125 90.71875 825.9844 90.71875Q823.9219 90.71875 822.6406 89.390625Q821.3594 88.0625 821.3594 85.578125ZM823.0781 85.578125Q823.0781 87.46875 823.90625 88.40625Q824.7344 89.34375 825.9844 89.34375Q827.2344 89.34375 828.0547 88.39844Q828.875 87.453125 828.875 85.515625Q828.875 83.6875 828.0469 82.75Q827.21875 81.8125 825.9844 81.8125Q824.7344 81.8125 823.90625 82.75Q823.0781 83.6875 823.0781 85.578125ZM832.3594 90.5L832.3594 80.640625L833.8594 80.640625L833.8594 82.046875Q834.9531 80.421875 837.0 80.421875Q837.8906 80.421875 838.6406 80.74219Q839.3906 81.0625 839.7578 81.58594Q840.125 82.109375 840.28125 82.8125Q840.375 83.28125 840.375 84.4375L840.375 90.5L838.7031 90.5L838.7031 84.5Q838.7031 83.484375 838.5078 82.97656Q838.3125 82.46875 837.8125 82.171875Q837.3125 81.875 836.6406 81.875Q835.5781 81.875 834.8047 82.546875Q834.03125 83.21875 834.03125 85.125L834.03125 90.5L832.3594 90.5ZM842.75 78.8125L842.75 76.90625L844.4219 76.90625L844.4219 78.8125L842.75 78.8125ZM842.75 90.5L842.75 80.640625L844.4219 80.640625L844.4219 90.5L842.75 90.5ZM853.3125 86.890625L854.9531 87.109375Q854.6875 88.796875 853.5781 89.75781Q852.46875 90.71875 850.84375 90.71875Q848.8281 90.71875 847.60156 89.39844Q846.375 88.078125 846.375 85.609375Q846.375 84.015625 846.89844 82.82031Q847.4219 81.625 848.5078 81.02344Q849.59375 80.421875 850.8594 80.421875Q852.46875 80.421875 853.4844 81.234375Q854.5 82.046875 854.7969 83.546875L853.1719 83.796875Q852.9375 82.796875 852.34375 82.296875Q851.75 81.796875 850.9219 81.796875Q849.65625 81.796875 848.8672 82.703125Q848.0781 83.609375 848.0781 85.5625Q848.0781 87.546875 848.84375 88.44531Q849.6094 89.34375 850.8281 89.34375Q851.8125 89.34375 852.46875 88.74219Q853.125 88.140625 853.3125 86.890625ZM862.6406 89.28125Q861.7031 90.078125 860.84375 90.39844Q859.9844 90.71875 859.0 90.71875Q857.3906 90.71875 856.5156 89.92969Q855.6406 89.140625 855.6406 87.90625Q855.6406 87.171875 855.96875 86.578125Q856.2969 85.984375 856.8281 85.625Q857.3594 85.265625 858.03125 85.078125Q858.53125 84.9375 859.5156 84.828125Q861.5469 84.578125 862.5 84.25Q862.5 83.90625 862.5 83.8125Q862.5 82.796875 862.03125 82.375Q861.3906 81.8125 860.125 81.8125Q858.9531 81.8125 858.3906 82.21875Q857.8281 82.625 857.5625 83.6875L855.9219 83.453125Q856.15625 82.40625 856.66406 81.765625Q857.1719 81.125 858.1328 80.77344Q859.09375 80.421875 860.375 80.421875Q861.6406 80.421875 862.4219 80.71875Q863.2031 81.015625 863.5781 81.46875Q863.9531 81.921875 864.09375 82.609375Q864.1875 83.03125 864.1875 84.140625L864.1875 86.375Q864.1875 88.703125 864.28906 89.32031Q864.3906 89.9375 864.71875 90.5L862.96875 90.5Q862.7031 89.984375 862.6406 89.28125ZM862.5 85.5625Q861.59375 85.921875 859.7656 86.1875Q858.7344 86.328125 858.3125 86.515625Q857.8906 86.703125 857.65625 87.0625Q857.4219 87.421875 857.4219 87.859375Q857.4219 88.53125 857.9297 88.97656Q858.4375 89.421875 859.40625 89.421875Q860.375 89.421875 861.125 88.99219Q861.875 88.5625 862.2344 87.84375Q862.5 87.265625 862.5 86.171875L862.5 85.5625ZM866.5469 90.5L866.5469 76.90625L868.21875 76.90625L868.21875 90.5L866.5469 90.5Z" fill-rule="nonzero" fill="#000000"></path><path d="M888.0 64.0L1008.0 64.0L1008.0 104.0L888.0 104.0Z" fill-rule="nonzero" stroke="#000000" stroke-width="1.0" stroke-linejoin="round" stroke-linecap="butt"></path><path d="M930.0625 90.5L930.0625 76.90625L931.875 76.90625L931.875 90.5L930.0625 90.5ZM934.3281 86.125L936.0156 85.984375Q936.1406 87.0 936.5781 87.65625Q937.0156 88.3125 937.9453 88.71875Q938.875 89.125 940.03125 89.125Q941.0625 89.125 941.85156 88.8125Q942.6406 88.5 943.03125 87.96875Q943.4219 87.4375 943.4219 86.8125Q943.4219 86.171875 943.0469 85.69531Q942.6719 85.21875 941.8125 84.890625Q941.2656 84.671875 939.3906 84.22656Q937.5156 83.78125 936.7656 83.375Q935.7969 82.859375 935.3203 82.109375Q934.84375 81.359375 934.84375 80.421875Q934.84375 79.390625 935.4297 78.49219Q936.0156 77.59375 937.1328 77.13281Q938.25 76.671875 939.625 76.671875Q941.1406 76.671875 942.2969 77.15625Q943.4531 77.640625 944.0703 78.58594Q944.6875 79.53125 944.7344 80.734375L943.0156 80.859375Q942.875 79.578125 942.0703 78.91406Q941.2656 78.25 939.7031 78.25Q938.0781 78.25 937.3281 78.85156Q936.5781 79.453125 936.5781 80.296875Q936.5781 81.03125 937.1094 81.5Q937.625 81.96875 939.8203 82.46875Q942.0156 82.96875 942.8281 83.34375Q944.0156 83.890625 944.58594 84.72656Q945.15625 85.5625 945.15625 86.65625Q945.15625 87.75 944.53125 88.71094Q943.90625 89.671875 942.7422 90.203125Q941.5781 90.734375 940.125 90.734375Q938.28125 90.734375 937.03125 90.19531Q935.78125 89.65625 935.0703 88.578125Q934.3594 87.5 934.3281 86.125ZM951.28125 90.5L946.0 76.90625L947.9531 76.90625L951.4844 86.78125Q951.9219 87.96875 952.2031 89.0Q952.5156 87.890625 952.9375 86.78125L956.6094 76.90625L958.4531 76.90625L953.125 90.5L951.28125 90.5ZM958.9375 87.5625L960.59375 87.296875Q960.7344 88.296875 961.3672 88.82031Q962.0 89.34375 963.1406 89.34375Q964.2969 89.34375 964.85156 88.875Q965.40625 88.40625 965.40625 87.78125Q965.40625 87.21875 964.9219 86.890625Q964.5781 86.671875 963.21875 86.328125Q961.375 85.859375 960.66406 85.52344Q959.9531 85.1875 959.58594 84.58594Q959.21875 83.984375 959.21875 83.265625Q959.21875 82.609375 959.52344 82.046875Q959.8281 81.484375 960.34375 81.109375Q960.7344 80.828125 961.40625 80.625Q962.0781 80.421875 962.84375 80.421875Q964.0156 80.421875 964.8906 80.75781Q965.7656 81.09375 966.1797 81.66406Q966.59375 82.234375 966.75 83.1875L965.125 83.40625Q965.0156 82.65625 964.47656 82.22656Q963.9375 81.796875 962.96875 81.796875Q961.8125 81.796875 961.3281 82.17969Q960.84375 82.5625 960.84375 83.0625Q960.84375 83.390625 961.0469 83.65625Q961.25 83.921875 961.6875 84.09375Q961.9375 84.1875 963.15625 84.53125Q964.9219 85.0 965.625 85.296875Q966.3281 85.59375 966.72656 86.171875Q967.125 86.75 967.125 87.609375Q967.125 88.4375 966.6406 89.17969Q966.15625 89.921875 965.2344 90.32031Q964.3125 90.71875 963.15625 90.71875Q961.2344 90.71875 960.22656 89.921875Q959.21875 89.125 958.9375 87.5625Z" fill-rule="nonzero" fill="#000000"></path><g transform="matrix(0.21875014017260294 0.0 0.0 0.21383648969995694 480.0 176.0)"><image fill="#000" width="512" height="636" xlink:href="http://www.hermann-uwe.de/files/images/debian_4.png"></image></g><g transform="matrix(0.42105274751117533 0.0 0.0 0.42105274751117533 480.0 384.0)"><image fill="#000" width="285" height="285" xlink:href="http://design.canonical.com/brand/Logos/UBUNTU%20BRANDMARK_AW/2.%20circle%20of%20friends/Files%20for%20web/PNG/cof_orange_hex.png"></image></g><g transform="matrix(0.6371682234636442 0.0 0.0 0.646017600232222 368.0 568.0)"><image fill="#000" width="113" height="113" xlink:href="http://design.canonical.com/brand/Pictograms/PNG_files/HEX/WARM_GREY_HEX/cd-dvd_grey_hex.png"></image></g><path d="M184.0 104.0L460.71335 203.92427" fill-rule="evenodd" stroke="#073763" stroke-width="2.0" stroke-linejoin="round" stroke-linecap="butt"></path><path d="M459.59134 207.03136L469.25 207.00694L461.83536 200.81718Z" fill-rule="evenodd" fill="#073763" stroke="#073763" stroke-width="2.0" stroke-linecap="butt"></path><path d="M320.0 104.0L469.26688 178.63344" fill-rule="evenodd" stroke="#073763" stroke-width="2.0" stroke-linejoin="round" stroke-linecap="butt"></path><path d="M467.78952 181.58815L477.38486 182.69243L470.74423 175.67873Z" fill-rule="evenodd" fill="#073763" stroke="#073763" stroke-width="2.0" stroke-linecap="butt"></path><path d="M448.0 104.0L496.09793 158.96909" fill-rule="evenodd" stroke="#073763" stroke-width="2.0" stroke-linejoin="round" stroke-linecap="butt"></path><path d="M493.61185 161.14442L502.07465 165.7996L498.58405 156.79373Z" fill-rule="evenodd" fill="#073763" stroke="#073763" stroke-width="2.0" stroke-linecap="butt"></path><path d="M568.0 104.0L554.9104 156.35829" fill-rule="evenodd" stroke="#073763" stroke-width="2.0" stroke-linejoin="round" stroke-linecap="butt"></path><path d="M551.70557 155.55708L552.7091 165.1635L558.11523 157.1595Z" fill-rule="evenodd" fill="#073763" stroke="#073763" stroke-width="2.0" stroke-linecap="butt"></path><path d="M704.0 104.0L609.5115 176.68347" fill-rule="evenodd" stroke="#073763" stroke-width="2.0" stroke-linejoin="round" stroke-linecap="butt"></path><path d="M607.4973 174.06506L602.3175 182.21733L611.52563 179.30188Z" fill-rule="evenodd" fill="#073763" stroke="#073763" stroke-width="2.0" stroke-linecap="butt"></path><path d="M824.0 104.0L591.6822 382.78134" fill-rule="evenodd" stroke="#073763" stroke-width="2.0" stroke-linejoin="round" stroke-linecap="butt"></path><path d="M589.1444 380.6665L585.87177 389.75388L594.22003 384.89618Z" fill-rule="evenodd" fill="#073763" stroke="#073763" stroke-width="2.0" stroke-linecap="butt"></path><path d="M824.0 104.0L618.6531 210.4762" fill-rule="evenodd" stroke="#073763" stroke-width="2.0" stroke-linejoin="round" stroke-linecap="butt"></path><path d="M617.1324 207.54353L610.59564 214.65413L620.1737 213.40886Z" fill-rule="evenodd" fill="#073763" stroke="#073763" stroke-width="2.0" stroke-linecap="butt"></path><path d="M944.0 104.0L616.7935 407.8346" fill-rule="evenodd" stroke="#073763" stroke-width="2.0" stroke-linejoin="round" stroke-linecap="butt"></path><path d="M614.54565 405.41382L610.1425 414.0105L619.0414 410.25534Z" fill-rule="evenodd" fill="#073763" stroke="#073763" stroke-width="2.0" stroke-linecap="butt"></path><path d="M536.0 320.0L536.0 372.0" fill-rule="evenodd" stroke="#073763" stroke-width="2.0" stroke-linejoin="round" stroke-linecap="butt"></path><path d="M532.69653 372.0L536.0 381.0762L539.30347 372.0Z" fill-rule="evenodd" fill="#073763" stroke="#073763" stroke-width="2.0" stroke-linecap="butt"></path><path d="M592.0 592.0L752.0 592.0L752.0 640.0L592.0 640.0Z" fill-rule="nonzero" stroke="#000000" stroke-width="1.0" stroke-linejoin="round" stroke-linecap="butt"></path><path d="M619.3906 617.7344L621.1875 618.1875Q620.625 620.40625 619.15625 621.5703Q617.6875 622.7344 615.5625 622.7344Q613.3594 622.7344 611.9844 621.83594Q610.6094 620.9375 609.8906 619.2422Q609.1719 617.5469 609.1719 615.59375Q609.1719 613.46875 609.97656 611.8906Q610.78125 610.3125 612.28125 609.4922Q613.78125 608.6719 615.5781 608.6719Q617.625 608.6719 619.0156 609.71094Q620.40625 610.75 620.9531 612.625L619.1875 613.0469Q618.71875 611.5625 617.8125 610.8828Q616.90625 610.2031 615.5469 610.2031Q613.9844 610.2031 612.9297 610.9531Q611.875 611.7031 611.4453 612.97656Q611.0156 614.25 611.0156 615.59375Q611.0156 617.3281 611.52344 618.6172Q612.03125 619.90625 613.10156 620.5469Q614.1719 621.1875 615.40625 621.1875Q616.9219 621.1875 617.96875 620.3203Q619.0156 619.4531 619.3906 617.7344ZM629.40625 622.5L629.40625 621.0469Q628.2656 622.71875 626.28125 622.71875Q625.4219 622.71875 624.66406 622.3828Q623.90625 622.0469 623.53906 621.5469Q623.1719 621.0469 623.0156 620.3125Q622.9219 619.8125 622.9219 618.75L622.9219 612.6406L624.59375 612.6406L624.59375 618.1094Q624.59375 619.4219 624.6875 619.875Q624.84375 620.53125 625.3594 620.90625Q625.875 621.28125 626.625 621.28125Q627.375 621.28125 628.03125 620.89844Q628.6875 620.5156 628.96094 619.85156Q629.2344 619.1875 629.2344 617.9219L629.2344 612.6406L630.90625 612.6406L630.90625 622.5L629.40625 622.5ZM632.65625 619.5625L634.3125 619.2969Q634.4531 620.2969 635.08594 620.8203Q635.71875 621.34375 636.8594 621.34375Q638.0156 621.34375 638.5703 620.875Q639.125 620.40625 639.125 619.78125Q639.125 619.21875 638.6406 618.8906Q638.2969 618.6719 636.9375 618.3281Q635.09375 617.8594 634.3828 617.52344Q633.6719 617.1875 633.3047 616.58594Q632.9375 615.9844 632.9375 615.2656Q632.9375 614.6094 633.2422 614.0469Q633.5469 613.4844 634.0625 613.1094Q634.4531 612.8281 635.125 612.625Q635.7969 612.4219 636.5625 612.4219Q637.7344 612.4219 638.6094 612.7578Q639.4844 613.09375 639.89844 613.66406Q640.3125 614.2344 640.46875 615.1875L638.84375 615.40625Q638.7344 614.65625 638.1953 614.22656Q637.65625 613.7969 636.6875 613.7969Q635.53125 613.7969 635.0469 614.1797Q634.5625 614.5625 634.5625 615.0625Q634.5625 615.3906 634.7656 615.65625Q634.96875 615.9219 635.40625 616.09375Q635.65625 616.1875 636.875 616.53125Q638.6406 617.0 639.34375 617.2969Q640.0469 617.59375 640.4453 618.1719Q640.84375 618.75 640.84375 619.6094Q640.84375 620.4375 640.3594 621.1797Q639.875 621.9219 638.9531 622.3203Q638.03125 622.71875 636.875 622.71875Q634.9531 622.71875 633.9453 621.9219Q632.9375 621.125 632.65625 619.5625ZM646.3125 621.0L646.5469 622.4844Q645.84375 622.625 645.28125 622.625Q644.375 622.625 643.875 622.33594Q643.375 622.0469 643.1719 621.58594Q642.96875 621.125 642.96875 619.6094L642.96875 613.9531L641.7344 613.9531L641.7344 612.6406L642.96875 612.6406L642.96875 610.2031L644.625 609.2031L644.625 612.6406L646.3125 612.6406L646.3125 613.9531L644.625 613.9531L644.625 619.7031Q644.625 620.4219 644.71094 620.625Q644.7969 620.8281 645.0 620.9531Q645.2031 621.0781 645.5781 621.0781Q645.84375 621.0781 646.3125 621.0ZM647.2031 617.5781Q647.2031 614.84375 648.7344 613.5156Q650.0 612.4219 651.8281 612.4219Q653.8594 612.4219 655.14844 613.7578Q656.4375 615.09375 656.4375 617.4375Q656.4375 619.34375 655.8672 620.4297Q655.2969 621.5156 654.21094 622.1172Q653.125 622.71875 651.8281 622.71875Q649.7656 622.71875 648.4844 621.3906Q647.2031 620.0625 647.2031 617.5781ZM648.9219 617.5781Q648.9219 619.46875 649.75 620.40625Q650.5781 621.34375 651.8281 621.34375Q653.0781 621.34375 653.89844 620.39844Q654.71875 619.4531 654.71875 617.5156Q654.71875 615.6875 653.8906 614.75Q653.0625 613.8125 651.8281 613.8125Q650.5781 613.8125 649.75 614.75Q648.9219 615.6875 648.9219 617.5781ZM658.21875 622.5L658.21875 612.6406L659.71875 612.6406L659.71875 614.03125Q660.1719 613.3125 660.9453 612.8672Q661.71875 612.4219 662.7031 612.4219Q663.7969 612.4219 664.5 612.875Q665.2031 613.3281 665.4844 614.15625Q666.65625 612.4219 668.53125 612.4219Q670.0 612.4219 670.78906 613.2344Q671.5781 614.0469 671.5781 615.7344L671.5781 622.5L669.90625 622.5L669.90625 616.2969Q669.90625 615.2969 669.75 614.85156Q669.59375 614.40625 669.16406 614.1406Q668.7344 613.875 668.15625 613.875Q667.125 613.875 666.4375 614.5625Q665.75 615.25 665.75 616.78125L665.75 622.5L664.0781 622.5L664.0781 616.09375Q664.0781 614.9844 663.6719 614.4297Q663.2656 613.875 662.3281 613.875Q661.625 613.875 661.02344 614.2422Q660.4219 614.6094 660.15625 615.3281Q659.8906 616.0469 659.8906 617.3906L659.8906 622.5L658.21875 622.5ZM673.7656 610.8125L673.7656 608.90625L675.4375 608.90625L675.4375 610.8125L673.7656 610.8125ZM673.7656 622.5L673.7656 612.6406L675.4375 612.6406L675.4375 622.5L673.7656 622.5ZM677.0156 622.5L677.0156 621.1406L683.28125 613.9531Q682.21875 614.0 681.40625 614.0L677.3906 614.0L677.3906 612.6406L685.4375 612.6406L685.4375 613.75L680.09375 620.0L679.0781 621.1406Q680.1875 621.0625 681.1719 621.0625L685.7344 621.0625L685.7344 622.5L677.0156 622.5ZM693.65625 621.28125Q692.71875 622.0781 691.8594 622.39844Q691.0 622.71875 690.0156 622.71875Q688.40625 622.71875 687.53125 621.9297Q686.65625 621.1406 686.65625 619.90625Q686.65625 619.1719 686.9844 618.5781Q687.3125 617.9844 687.84375 617.625Q688.375 617.2656 689.0469 617.0781Q689.5469 616.9375 690.53125 616.8281Q692.5625 616.5781 693.5156 616.25Q693.5156 615.90625 693.5156 615.8125Q693.5156 614.7969 693.0469 614.375Q692.40625 613.8125 691.1406 613.8125Q689.96875 613.8125 689.40625 614.21875Q688.84375 614.625 688.5781 615.6875L686.9375 615.4531Q687.1719 614.40625 687.6797 613.7656Q688.1875 613.125 689.14844 612.77344Q690.1094 612.4219 691.3906 612.4219Q692.65625 612.4219 693.4375 612.71875Q694.21875 613.0156 694.59375 613.46875Q694.96875 613.9219 695.1094 614.6094Q695.2031 615.03125 695.2031 616.1406L695.2031 618.375Q695.2031 620.7031 695.3047 621.3203Q695.40625 621.9375 695.7344 622.5L693.9844 622.5Q693.71875 621.9844 693.65625 621.28125ZM693.5156 617.5625Q692.6094 617.9219 690.78125 618.1875Q689.75 618.3281 689.3281 618.5156Q688.90625 618.7031 688.6719 619.0625Q688.4375 619.4219 688.4375 619.8594Q688.4375 620.53125 688.9453 620.97656Q689.4531 621.4219 690.4219 621.4219Q691.3906 621.4219 692.1406 620.9922Q692.8906 620.5625 693.25 619.84375Q693.5156 619.2656 693.5156 618.1719L693.5156 617.5625ZM701.25 621.0L701.4844 622.4844Q700.78125 622.625 700.21875 622.625Q699.3125 622.625 698.8125 622.33594Q698.3125 622.0469 698.1094 621.58594Q697.90625 621.125 697.90625 619.6094L697.90625 613.9531L696.6719 613.9531L696.6719 612.6406L697.90625 612.6406L697.90625 610.2031L699.5625 609.2031L699.5625 612.6406L701.25 612.6406L701.25 613.9531L699.5625 613.9531L699.5625 619.7031Q699.5625 620.4219 699.64844 620.625Q699.7344 620.8281 699.9375 620.9531Q700.1406 621.0781 700.5156 621.0781Q700.78125 621.0781 701.25 621.0ZM702.7969 610.8125L702.7969 608.90625L704.46875 608.90625L704.46875 610.8125L702.7969 610.8125ZM702.7969 622.5L702.7969 612.6406L704.46875 612.6406L704.46875 622.5L702.7969 622.5ZM706.2969 617.5781Q706.2969 614.84375 707.8281 613.5156Q709.09375 612.4219 710.9219 612.4219Q712.9531 612.4219 714.2422 613.7578Q715.53125 615.09375 715.53125 617.4375Q715.53125 619.34375 714.96094 620.4297Q714.3906 621.5156 713.3047 622.1172Q712.21875 622.71875 710.9219 622.71875Q708.8594 622.71875 707.5781 621.3906Q706.2969 620.0625 706.2969 617.5781ZM708.0156 617.5781Q708.0156 619.46875 708.84375 620.40625Q709.6719 621.34375 710.9219 621.34375Q712.1719 621.34375 712.9922 620.39844Q713.8125 619.4531 713.8125 617.5156Q713.8125 615.6875 712.9844 614.75Q712.15625 613.8125 710.9219 613.8125Q709.6719 613.8125 708.84375 614.75Q708.0156 615.6875 708.0156 617.5781ZM717.3125 622.5L717.3125 612.6406L718.8125 612.6406L718.8125 614.0469Q719.90625 612.4219 721.9531 612.4219Q722.84375 612.4219 723.59375 612.7422Q724.34375 613.0625 724.71094 613.58594Q725.0781 614.1094 725.2344 614.8125Q725.3281 615.28125 725.3281 616.4375L725.3281 622.5L723.65625 622.5L723.65625 616.5Q723.65625 615.4844 723.46094 614.97656Q723.2656 614.46875 722.7656 614.1719Q722.2656 613.875 721.59375 613.875Q720.53125 613.875 719.7578 614.5469Q718.9844 615.21875 718.9844 617.125L718.9844 622.5L717.3125 622.5ZM727.0156 619.5625L728.6719 619.2969Q728.8125 620.2969 729.4453 620.8203Q730.0781 621.34375 731.21875 621.34375Q732.375 621.34375 732.9297 620.875Q733.4844 620.40625 733.4844 619.78125Q733.4844 619.21875 733.0 618.8906Q732.65625 618.6719 731.2969 618.3281Q729.4531 617.8594 728.7422 617.52344Q728.03125 617.1875 727.66406 616.58594Q727.2969 615.9844 727.2969 615.2656Q727.2969 614.6094 727.60156 614.0469Q727.90625 613.4844 728.4219 613.1094Q728.8125 612.8281 729.4844 612.625Q730.15625 612.4219 730.9219 612.4219Q732.09375 612.4219 732.96875 612.7578Q733.84375 613.09375 734.2578 613.66406Q734.6719 614.2344 734.8281 615.1875L733.2031 615.40625Q733.09375 614.65625 732.5547 614.22656Q732.0156 613.7969 731.0469 613.7969Q729.8906 613.7969 729.40625 614.1797Q728.9219 614.5625 728.9219 615.0625Q728.9219 615.3906 729.125 615.65625Q729.3281 615.9219 729.7656 616.09375Q730.0156 616.1875 731.2344 616.53125Q733.0 617.0 733.7031 617.2969Q734.40625 617.59375 734.8047 618.1719Q735.2031 618.75 735.2031 619.6094Q735.2031 620.4375 734.71875 621.1797Q734.2344 621.9219 733.3125 622.3203Q732.3906 622.71875 731.2344 622.71875Q729.3125 622.71875 728.3047 621.9219Q727.2969 621.125 727.0156 619.5625Z" fill-rule="nonzero" fill="#000000"></path><path d="M672.0 592.0L600.4853 520.4853" fill-rule="evenodd" stroke="#073763" stroke-width="2.0" stroke-linejoin="round" stroke-linecap="butt"></path><path d="M602.82117 518.14935L594.06744 514.06744L598.14935 522.82117Z" fill-rule="evenodd" fill="#073763" stroke="#073763" stroke-width="2.0" stroke-linecap="butt"></path><path d="M488.0 512.0L447.8095 558.8889" fill-rule="evenodd" stroke="#073763" stroke-width="2.0" stroke-linejoin="round" stroke-linecap="butt"></path><path d="M445.30133 556.7391L441.9028 565.7801L450.3177 561.03876Z" fill-rule="evenodd" fill="#073763" stroke="#073763" stroke-width="2.0" stroke-linecap="butt"></path><path d="M464.0 616.0L572.0 616.0" fill-rule="evenodd" stroke="#073763" stroke-width="2.0" stroke-linejoin="round" stroke-linecap="butt"></path><path d="M572.0 619.30347L581.0762 616.0L572.0 612.69653Z" fill-rule="evenodd" fill="#073763" stroke="#073763" stroke-width="2.0" stroke-linecap="butt"></path><path d="M224.0 704.0L408.0 704.0L408.0 752.0L224.0 752.0Z" fill-rule="nonzero" stroke="#000000" stroke-width="1.0" stroke-linejoin="round" stroke-linecap="butt"></path><path d="M244.96875 720.90625L246.76562 720.90625L246.76562 728.75Q246.76562 730.8125 246.30469 732.0156Q245.84375 733.21875 244.63281 733.97656Q243.42188 734.7344 241.45312 734.7344Q239.54688 734.7344 238.32812 734.0781Q237.10938 733.4219 236.59375 732.1719Q236.07812 730.9219 236.07812 728.75L236.07812 720.90625L237.875 720.90625L237.875 728.75Q237.875 730.5156 238.20312 731.3594Q238.53125 732.2031 239.33594 732.65625Q240.14062 733.1094 241.29688 733.1094Q243.28125 733.1094 244.125 732.21094Q244.96875 731.3125 244.96875 728.75L244.96875 720.90625ZM250.84375 734.5L249.29688 734.5L249.29688 720.90625L250.95312 720.90625L250.95312 725.75Q252.01562 724.4219 253.65625 724.4219Q254.5625 724.4219 255.375 724.78906Q256.1875 725.15625 256.71094 725.8203Q257.23438 726.4844 257.53125 727.4219Q257.82812 728.3594 257.82812 729.4219Q257.82812 731.9531 256.57812 733.33594Q255.32812 734.71875 253.57812 734.71875Q251.82812 734.71875 250.84375 733.2656L250.84375 734.5ZM250.82812 729.5Q250.82812 731.2656 251.29688 732.0625Q252.09375 733.34375 253.4375 733.34375Q254.53125 733.34375 255.32812 732.39844Q256.125 731.4531 256.125 729.5625Q256.125 727.6406 255.35938 726.71875Q254.59375 725.7969 253.51562 725.7969Q252.42188 725.7969 251.625 726.75Q250.82812 727.7031 250.82812 729.5ZM266.125 734.5L266.125 733.0469Q264.98438 734.71875 263.0 734.71875Q262.14062 734.71875 261.3828 734.3828Q260.625 734.0469 260.2578 733.5469Q259.89062 733.0469 259.73438 732.3125Q259.64062 731.8125 259.64062 730.75L259.64062 724.6406L261.3125 724.6406L261.3125 730.1094Q261.3125 731.4219 261.40625 731.875Q261.5625 732.53125 262.07812 732.90625Q262.59375 733.28125 263.34375 733.28125Q264.09375 733.28125 264.75 732.89844Q265.40625 732.5156 265.6797 731.85156Q265.95312 731.1875 265.95312 729.9219L265.95312 724.6406L267.625 724.6406L267.625 734.5L266.125 734.5ZM270.0625 734.5L270.0625 724.6406L271.5625 724.6406L271.5625 726.0469Q272.65625 724.4219 274.70312 724.4219Q275.59375 724.4219 276.34375 724.7422Q277.09375 725.0625 277.46094 725.58594Q277.82812 726.1094 277.98438 726.8125Q278.07812 727.28125 278.07812 728.4375L278.07812 734.5L276.40625 734.5L276.40625 728.5Q276.40625 727.4844 276.21094 726.97656Q276.01562 726.46875 275.51562 726.1719Q275.01562 725.875 274.34375 725.875Q273.28125 725.875 272.5078 726.5469Q271.73438 727.21875 271.73438 729.125L271.73438 734.5L270.0625 734.5ZM284.09375 733.0L284.32812 734.4844Q283.625 734.625 283.0625 734.625Q282.15625 734.625 281.65625 734.33594Q281.15625 734.0469 280.95312 733.58594Q280.75 733.125 280.75 731.6094L280.75 725.9531L279.51562 725.9531L279.51562 724.6406L280.75 724.6406L280.75 722.2031L282.40625 721.2031L282.40625 724.6406L284.09375 724.6406L284.09375 725.9531L282.40625 725.9531L282.40625 731.7031Q282.40625 732.4219 282.4922 732.625Q282.57812 732.8281 282.78125 732.9531Q282.98438 733.0781 283.35938 733.0781Q283.625 733.0781 284.09375 733.0ZM292.0625 734.5L292.0625 733.0469Q290.92188 734.71875 288.9375 734.71875Q288.07812 734.71875 287.3203 734.3828Q286.5625 734.0469 286.1953 733.5469Q285.82812 733.0469 285.67188 732.3125Q285.57812 731.8125 285.57812 730.75L285.57812 724.6406L287.25 724.6406L287.25 730.1094Q287.25 731.4219 287.34375 731.875Q287.5 732.53125 288.01562 732.90625Q288.53125 733.28125 289.28125 733.28125Q290.03125 733.28125 290.6875 732.89844Q291.34375 732.5156 291.6172 731.85156Q291.89062 731.1875 291.89062 729.9219L291.89062 724.6406L293.5625 724.6406L293.5625 734.5L292.0625 734.5ZM301.1875 722.8125L301.1875 720.90625L302.85938 720.90625L302.85938 722.8125L301.1875 722.8125ZM301.1875 734.5L301.1875 724.6406L302.85938 724.6406L302.85938 734.5L301.1875 734.5ZM305.3125 734.5L305.3125 724.6406L306.8125 724.6406L306.8125 726.0469Q307.90625 724.4219 309.95312 724.4219Q310.84375 724.4219 311.59375 724.7422Q312.34375 725.0625 312.71094 725.58594Q313.07812 726.1094 313.23438 726.8125Q313.32812 727.28125 313.32812 728.4375L313.32812 734.5L311.65625 734.5L311.65625 728.5Q311.65625 727.4844 311.46094 726.97656Q311.26562 726.46875 310.76562 726.1719Q310.26562 725.875 309.59375 725.875Q308.53125 725.875 307.7578 726.5469Q306.98438 727.21875 306.98438 729.125L306.98438 734.5L305.3125 734.5ZM315.01562 731.5625L316.67188 731.2969Q316.8125 732.2969 317.4453 732.8203Q318.07812 733.34375 319.21875 733.34375Q320.375 733.34375 320.9297 732.875Q321.48438 732.40625 321.48438 731.78125Q321.48438 731.21875 321.0 730.8906Q320.65625 730.6719 319.29688 730.3281Q317.45312 729.8594 316.7422 729.52344Q316.03125 729.1875 315.66406 728.58594Q315.29688 727.9844 315.29688 727.2656Q315.29688 726.6094 315.60156 726.0469Q315.90625 725.4844 316.42188 725.1094Q316.8125 724.8281 317.48438 724.625Q318.15625 724.4219 318.92188 724.4219Q320.09375 724.4219 320.96875 724.7578Q321.84375 725.09375 322.2578 725.66406Q322.67188 726.2344 322.82812 727.1875L321.20312 727.40625Q321.09375 726.65625 320.5547 726.22656Q320.01562 725.7969 319.04688 725.7969Q317.89062 725.7969 317.40625 726.1797Q316.92188 726.5625 316.92188 727.0625Q316.92188 727.3906 317.125 727.65625Q317.32812 727.9219 317.76562 728.09375Q318.01562 728.1875 319.23438 728.53125Q321.0 729.0 321.70312 729.2969Q322.40625 729.59375 322.8047 730.1719Q323.20312 730.75 323.20312 731.6094Q323.20312 732.4375 322.71875 733.1797Q322.23438 733.9219 321.3125 734.3203Q320.39062 734.71875 319.23438 734.71875Q317.3125 734.71875 316.3047 733.9219Q315.29688 733.125 315.01562 731.5625ZM328.67188 733.0L328.90625 734.4844Q328.20312 734.625 327.64062 734.625Q326.73438 734.625 326.23438 734.33594Q325.73438 734.0469 325.53125 733.58594Q325.32812 733.125 325.32812 731.6094L325.32812 725.9531L324.09375 725.9531L324.09375 724.6406L325.32812 724.6406L325.32812 722.2031L326.98438 721.2031L326.98438 724.6406L328.67188 724.6406L328.67188 725.9531L326.98438 725.9531L326.98438 731.7031Q326.98438 732.4219 327.0703 732.625Q327.15625 732.8281 327.35938 732.9531Q327.5625 733.0781 327.9375 733.0781Q328.20312 733.0781 328.67188 733.0ZM336.64062 733.28125Q335.70312 734.0781 334.84375 734.39844Q333.98438 734.71875 333.0 734.71875Q331.39062 734.71875 330.51562 733.9297Q329.64062 733.1406 329.64062 731.90625Q329.64062 731.1719 329.96875 730.5781Q330.29688 729.9844 330.82812 729.625Q331.35938 729.2656 332.03125 729.0781Q332.53125 728.9375 333.51562 728.8281Q335.54688 728.5781 336.5 728.25Q336.5 727.90625 336.5 727.8125Q336.5 726.7969 336.03125 726.375Q335.39062 725.8125 334.125 725.8125Q332.95312 725.8125 332.39062 726.21875Q331.82812 726.625 331.5625 727.6875L329.92188 727.4531Q330.15625 726.40625 330.66406 725.7656Q331.17188 725.125 332.1328 724.77344Q333.09375 724.4219 334.375 724.4219Q335.64062 724.4219 336.42188 724.71875Q337.20312 725.0156 337.57812 725.46875Q337.95312 725.9219 338.09375 726.6094Q338.1875 727.03125 338.1875 728.1406L338.1875 730.375Q338.1875 732.7031 338.28906 733.3203Q338.39062 733.9375 338.71875 734.5L336.96875 734.5Q336.70312 733.9844 336.64062 733.28125ZM336.5 729.5625Q335.59375 729.9219 333.76562 730.1875Q332.73438 730.3281 332.3125 730.5156Q331.89062 730.7031 331.65625 731.0625Q331.42188 731.4219 331.42188 731.8594Q331.42188 732.53125 331.9297 732.97656Q332.4375 733.4219 333.40625 733.4219Q334.375 733.4219 335.125 732.9922Q335.875 732.5625 336.23438 731.84375Q336.5 731.2656 336.5 730.1719L336.5 729.5625ZM340.54688 734.5L340.54688 720.90625L342.21875 720.90625L342.21875 734.5L340.54688 734.5ZM344.6875 734.5L344.6875 720.90625L346.35938 720.90625L346.35938 734.5L344.6875 734.5ZM355.3125 733.28125Q354.375 734.0781 353.51562 734.39844Q352.65625 734.71875 351.67188 734.71875Q350.0625 734.71875 349.1875 733.9297Q348.3125 733.1406 348.3125 731.90625Q348.3125 731.1719 348.64062 730.5781Q348.96875 729.9844 349.5 729.625Q350.03125 729.2656 350.70312 729.0781Q351.20312 728.9375 352.1875 728.8281Q354.21875 728.5781 355.17188 728.25Q355.17188 727.90625 355.17188 727.8125Q355.17188 726.7969 354.70312 726.375Q354.0625 725.8125 352.79688 725.8125Q351.625 725.8125 351.0625 726.21875Q350.5 726.625 350.23438 727.6875L348.59375 727.4531Q348.82812 726.40625 349.33594 725.7656Q349.84375 725.125 350.8047 724.77344Q351.76562 724.4219 353.04688 724.4219Q354.3125 724.4219 355.09375 724.71875Q355.875 725.0156 356.25 725.46875Q356.625 725.9219 356.76562 726.6094Q356.85938 727.03125 356.85938 728.1406L356.85938 730.375Q356.85938 732.7031 356.96094 733.3203Q357.0625 733.9375 357.39062 734.5L355.64062 734.5Q355.375 733.9844 355.3125 733.28125ZM355.17188 729.5625Q354.26562 729.9219 352.4375 730.1875Q351.40625 730.3281 350.98438 730.5156Q350.5625 730.7031 350.32812 731.0625Q350.09375 731.4219 350.09375 731.8594Q350.09375 732.53125 350.60156 732.97656Q351.10938 733.4219 352.07812 733.4219Q353.04688 733.4219 353.79688 732.9922Q354.54688 732.5625 354.90625 731.84375Q355.17188 731.2656 355.17188 730.1719L355.17188 729.5625ZM362.90625 733.0L363.14062 734.4844Q362.4375 734.625 361.875 734.625Q360.96875 734.625 360.46875 734.33594Q359.96875 734.0469 359.76562 733.58594Q359.5625 733.125 359.5625 731.6094L359.5625 725.9531L358.32812 725.9531L358.32812 724.6406L359.5625 724.6406L359.5625 722.2031L361.21875 721.2031L361.21875 724.6406L362.90625 724.6406L362.90625 725.9531L361.21875 725.9531L361.21875 731.7031Q361.21875 732.4219 361.3047 732.625Q361.39062 732.8281 361.59375 732.9531Q361.79688 733.0781 362.17188 733.0781Q362.4375 733.0781 362.90625 733.0ZM364.4375 722.8125L364.4375 720.90625L366.10938 720.90625L366.10938 722.8125L364.4375 722.8125ZM364.4375 734.5L364.4375 724.6406L366.10938 724.6406L366.10938 734.5L364.4375 734.5ZM367.95312 729.5781Q367.95312 726.84375 369.48438 725.5156Q370.75 724.4219 372.57812 724.4219Q374.60938 724.4219 375.89844 725.7578Q377.1875 727.09375 377.1875 729.4375Q377.1875 731.34375 376.6172 732.4297Q376.04688 733.5156 374.96094 734.1172Q373.875 734.71875 372.57812 734.71875Q370.51562 734.71875 369.23438 733.3906Q367.95312 732.0625 367.95312 729.5781ZM369.67188 729.5781Q369.67188 731.46875 370.5 732.40625Q371.32812 733.34375 372.57812 733.34375Q373.82812 733.34375 374.64844 732.39844Q375.46875 731.4531 375.46875 729.5156Q375.46875 727.6875 374.64062 726.75Q373.8125 725.8125 372.57812 725.8125Q371.32812 725.8125 370.5 726.75Q369.67188 727.6875 369.67188 729.5781ZM378.95312 734.5L378.95312 724.6406L380.45312 724.6406L380.45312 726.0469Q381.54688 724.4219 383.59375 724.4219Q384.48438 724.4219 385.23438 724.7422Q385.98438 725.0625 386.35156 725.58594Q386.71875 726.1094 386.875 726.8125Q386.96875 727.28125 386.96875 728.4375L386.96875 734.5L385.29688 734.5L385.29688 728.5Q385.29688 727.4844 385.10156 726.97656Q384.90625 726.46875 384.40625 726.1719Q383.90625 725.875 383.23438 725.875Q382.17188 725.875 381.39844 726.5469Q380.625 727.21875 380.625 729.125L380.625 734.5L378.95312 734.5ZM388.65625 731.5625L390.3125 731.2969Q390.45312 732.2969 391.08594 732.8203Q391.71875 733.34375 392.85938 733.34375Q394.01562 733.34375 394.5703 732.875Q395.125 732.40625 395.125 731.78125Q395.125 731.21875 394.64062 730.8906Q394.29688 730.6719 392.9375 730.3281Q391.09375 729.8594 390.3828 729.52344Q389.67188 729.1875 389.3047 728.58594Q388.9375 727.9844 388.9375 727.2656Q388.9375 726.6094 389.2422 726.0469Q389.54688 725.4844 390.0625 725.1094Q390.45312 724.8281 391.125 724.625Q391.79688 724.4219 392.5625 724.4219Q393.73438 724.4219 394.60938 724.7578Q395.48438 725.09375 395.89844 725.66406Q396.3125 726.2344 396.46875 727.1875L394.84375 727.40625Q394.73438 726.65625 394.1953 726.22656Q393.65625 725.7969 392.6875 725.7969Q391.53125 725.7969 391.04688 726.1797Q390.5625 726.5625 390.5625 727.0625Q390.5625 727.3906 390.76562 727.65625Q390.96875 727.9219 391.40625 728.09375Q391.65625 728.1875 392.875 728.53125Q394.64062 729.0 395.34375 729.2969Q396.04688 729.59375 396.4453 730.1719Q396.84375 730.75 396.84375 731.6094Q396.84375 732.4375 396.35938 733.1797Q395.875 733.9219 394.95312 734.3203Q394.03125 734.71875 392.875 734.71875Q390.95312 734.71875 389.9453 733.9219Q388.9375 733.125 388.65625 731.5625Z" fill-rule="nonzero" fill="#000000"></path><path d="M368.0 648.0L328.4853 687.5147" fill-rule="evenodd" stroke="#073763" stroke-width="2.0" stroke-linejoin="round" stroke-linecap="butt"></path><path d="M326.14938 685.17883L322.06744 693.93256L330.8212 689.85065Z" fill-rule="evenodd" fill="#073763" stroke="#073763" stroke-width="2.0" stroke-linecap="butt"></path><path d="M600.0 696.0L744.0 696.0L744.0 744.0L600.0 744.0Z" fill-rule="nonzero" stroke="#000000" stroke-width="1.0" stroke-linejoin="round" stroke-linecap="butt"></path><path d="M651.6719 719.875Q651.6719 716.4844 653.4922 714.5703Q655.3125 712.65625 658.1875 712.65625Q660.0625 712.65625 661.5781 713.5547Q663.09375 714.4531 663.8828 716.0625Q664.6719 717.6719 664.6719 719.71875Q664.6719 721.78125 663.83594 723.41406Q663.0 725.0469 661.46875 725.8906Q659.9375 726.7344 658.1719 726.7344Q656.25 726.7344 654.7422 725.8047Q653.2344 724.875 652.4531 723.27344Q651.6719 721.6719 651.6719 719.875ZM653.53125 719.90625Q653.53125 722.3594 654.85156 723.77344Q656.1719 725.1875 658.15625 725.1875Q660.1875 725.1875 661.5 723.7578Q662.8125 722.3281 662.8125 719.7031Q662.8125 718.0469 662.2578 716.8125Q661.7031 715.5781 660.6172 714.8906Q659.53125 714.2031 658.1875 714.2031Q656.28125 714.2031 654.90625 715.5156Q653.53125 716.8281 653.53125 719.90625ZM666.75 726.5L666.75 712.90625L676.59375 712.90625L676.59375 714.5L668.5469 714.5L668.5469 718.6719L676.0781 718.6719L676.0781 720.2656L668.5469 720.2656L668.5469 724.8906L676.90625 724.8906L676.90625 726.5L666.75 726.5ZM679.1094 726.5L679.1094 712.90625L681.8281 712.90625L685.0469 722.53125Q685.4844 723.875 685.6875 724.5469Q685.9219 723.7969 686.4219 722.3594L689.6719 712.90625L692.09375 712.90625L692.09375 726.5L690.3594 726.5L690.3594 715.1094L686.40625 726.5L684.78125 726.5L680.84375 714.9219L680.84375 726.5L679.1094 726.5Z" fill-rule="nonzero" fill="#000000"></path><path d="M600.0 792.0L744.0 792.0L744.0 840.0L600.0 840.0Z" fill-rule="nonzero" stroke="#000000" stroke-width="1.0" stroke-linejoin="round" stroke-linecap="butt"></path><path d="M652.2969 798.40625L654.09375 798.40625L654.09375 806.25Q654.09375 808.3125 653.6328 809.5156Q653.1719 810.71875 651.96094 811.47656Q650.75 812.2344 648.78125 812.2344Q646.875 812.2344 645.65625 811.5781Q644.4375 810.9219 643.9219 809.6719Q643.40625 808.4219 643.40625 806.25L643.40625 798.40625L645.2031 798.40625L645.2031 806.25Q645.2031 808.0156 645.53125 808.8594Q645.8594 809.7031 646.66406 810.15625Q647.46875 810.6094 648.625 810.6094Q650.6094 810.6094 651.4531 809.71094Q652.2969 808.8125 652.2969 806.25L652.2969 798.40625ZM658.1875 812.0L656.6406 812.0L656.6406 798.40625L658.2969 798.40625L658.2969 803.25Q659.3594 801.9219 661.0 801.9219Q661.90625 801.9219 662.71875 802.28906Q663.53125 802.65625 664.0547 803.3203Q664.5781 803.9844 664.875 804.9219Q665.1719 805.8594 665.1719 806.9219Q665.1719 809.4531 663.9219 810.83594Q662.6719 812.21875 660.9219 812.21875Q659.1719 812.21875 658.1875 810.7656L658.1875 812.0ZM658.1719 807.0Q658.1719 808.7656 658.6406 809.5625Q659.4375 810.84375 660.78125 810.84375Q661.875 810.84375 662.6719 809.89844Q663.46875 808.9531 663.46875 807.0625Q663.46875 805.1406 662.7031 804.21875Q661.9375 803.2969 660.8594 803.2969Q659.7656 803.2969 658.96875 804.25Q658.1719 805.2031 658.1719 807.0ZM673.46875 812.0L673.46875 810.5469Q672.3281 812.21875 670.34375 812.21875Q669.4844 812.21875 668.72656 811.8828Q667.96875 811.5469 667.60156 811.0469Q667.2344 810.5469 667.0781 809.8125Q666.9844 809.3125 666.9844 808.25L666.9844 802.1406L668.65625 802.1406L668.65625 807.6094Q668.65625 808.9219 668.75 809.375Q668.90625 810.03125 669.4219 810.40625Q669.9375 810.78125 670.6875 810.78125Q671.4375 810.78125 672.09375 810.39844Q672.75 810.0156 673.02344 809.35156Q673.2969 808.6875 673.2969 807.4219L673.2969 802.1406L674.96875 802.1406L674.96875 812.0L673.46875 812.0ZM677.3906 812.0L677.3906 802.1406L678.8906 802.1406L678.8906 803.5469Q679.9844 801.9219 682.03125 801.9219Q682.9219 801.9219 683.6719 802.2422Q684.4219 802.5625 684.78906 803.08594Q685.15625 803.6094 685.3125 804.3125Q685.40625 804.78125 685.40625 805.9375L685.40625 812.0L683.7344 812.0L683.7344 806.0Q683.7344 804.9844 683.53906 804.47656Q683.34375 803.96875 682.84375 803.6719Q682.34375 803.375 681.6719 803.375Q680.6094 803.375 679.83594 804.0469Q679.0625 804.71875 679.0625 806.625L679.0625 812.0L677.3906 812.0ZM691.4219 810.5L691.65625 811.9844Q690.9531 812.125 690.3906 812.125Q689.4844 812.125 688.9844 811.83594Q688.4844 811.5469 688.28125 811.08594Q688.0781 810.625 688.0781 809.1094L688.0781 803.4531L686.84375 803.4531L686.84375 802.1406L688.0781 802.1406L688.0781 799.7031L689.7344 798.7031L689.7344 802.1406L691.4219 802.1406L691.4219 803.4531L689.7344 803.4531L689.7344 809.2031Q689.7344 809.9219 689.8203 810.125Q689.90625 810.3281 690.1094 810.4531Q690.3125 810.5781 690.6875 810.5781Q690.9531 810.5781 691.4219 810.5ZM699.40625 812.0L699.40625 810.5469Q698.2656 812.21875 696.28125 812.21875Q695.4219 812.21875 694.66406 811.8828Q693.90625 811.5469 693.53906 811.0469Q693.1719 810.5469 693.0156 809.8125Q692.9219 809.3125 692.9219 808.25L692.9219 802.1406L694.59375 802.1406L694.59375 807.6094Q694.59375 808.9219 694.6875 809.375Q694.84375 810.03125 695.3594 810.40625Q695.875 810.78125 696.625 810.78125Q697.375 810.78125 698.03125 810.39844Q698.6875 810.0156 698.96094 809.35156Q699.2344 808.6875 699.2344 807.4219L699.2344 802.1406L700.90625 802.1406L700.90625 812.0L699.40625 812.0Z" fill-rule="nonzero" fill="#000000"></path><path d="M634.3594 833.0L634.3594 819.40625L636.03125 819.40625L636.03125 824.28125Q637.2031 822.9219 638.9844 822.9219Q640.0781 822.9219 640.8828 823.35156Q641.6875 823.78125 642.03906 824.5469Q642.3906 825.3125 642.3906 826.75L642.3906 833.0L640.71875 833.0L640.71875 826.75Q640.71875 825.5 640.1719 824.9297Q639.625 824.3594 638.6406 824.3594Q637.8906 824.3594 637.2422 824.7422Q636.59375 825.125 636.3125 825.78906Q636.03125 826.4531 636.03125 827.6094L636.03125 833.0L634.3594 833.0ZM651.1719 831.78125Q650.2344 832.5781 649.375 832.89844Q648.5156 833.21875 647.53125 833.21875Q645.9219 833.21875 645.0469 832.4297Q644.1719 831.6406 644.1719 830.40625Q644.1719 829.6719 644.5 829.0781Q644.8281 828.4844 645.3594 828.125Q645.8906 827.7656 646.5625 827.5781Q647.0625 827.4375 648.0469 827.3281Q650.0781 827.0781 651.03125 826.75Q651.03125 826.40625 651.03125 826.3125Q651.03125 825.2969 650.5625 824.875Q649.9219 824.3125 648.65625 824.3125Q647.4844 824.3125 646.9219 824.71875Q646.3594 825.125 646.09375 826.1875L644.4531 825.9531Q644.6875 824.90625 645.1953 824.2656Q645.7031 823.625 646.66406 823.27344Q647.625 822.9219 648.90625 822.9219Q650.1719 822.9219 650.9531 823.21875Q651.7344 823.5156 652.1094 823.96875Q652.4844 824.4219 652.625 825.1094Q652.71875 825.53125 652.71875 826.6406L652.71875 828.875Q652.71875 831.2031 652.8203 831.8203Q652.9219 832.4375 653.25 833.0L651.5 833.0Q651.2344 832.4844 651.1719 831.78125ZM651.03125 828.0625Q650.125 828.4219 648.2969 828.6875Q647.2656 828.8281 646.84375 829.0156Q646.4219 829.2031 646.1875 829.5625Q645.9531 829.9219 645.9531 830.3594Q645.9531 831.03125 646.46094 831.47656Q646.96875 831.9219 647.9375 831.9219Q648.90625 831.9219 649.65625 831.4922Q650.40625 831.0625 650.7656 830.34375Q651.03125 829.7656 651.03125 828.6719L651.03125 828.0625ZM655.09375 833.0L655.09375 823.1406L656.59375 823.1406L656.59375 824.6406Q657.1719 823.59375 657.65625 823.2578Q658.1406 822.9219 658.7344 822.9219Q659.5781 822.9219 660.4531 823.46875L659.875 825.0156Q659.2656 824.65625 658.6406 824.65625Q658.09375 824.65625 657.66406 824.9844Q657.2344 825.3125 657.0469 825.8906Q656.7656 826.78125 656.7656 827.84375L656.7656 833.0L655.09375 833.0ZM667.7031 833.0L667.7031 831.75Q666.7656 833.21875 664.9531 833.21875Q663.78125 833.21875 662.78906 832.5703Q661.7969 831.9219 661.2578 830.7578Q660.71875 829.59375 660.71875 828.0781Q660.71875 826.6094 661.21094 825.40625Q661.7031 824.2031 662.6797 823.5625Q663.65625 822.9219 664.875 822.9219Q665.7656 822.9219 666.46094 823.2969Q667.15625 823.6719 667.59375 824.28125L667.59375 819.40625L669.25 819.40625L669.25 833.0L667.7031 833.0ZM662.4219 828.0781Q662.4219 829.96875 663.22656 830.90625Q664.03125 831.84375 665.1094 831.84375Q666.2031 831.84375 666.96875 830.9531Q667.7344 830.0625 667.7344 828.21875Q667.7344 826.2031 666.9531 825.2578Q666.1719 824.3125 665.03125 824.3125Q663.9219 824.3125 663.1719 825.21875Q662.4219 826.125 662.4219 828.0781ZM673.5156 833.0L670.5 823.1406L672.21875 823.1406L673.78125 828.8281L674.375 830.9531Q674.40625 830.7969 674.875 828.9219L676.4531 823.1406L678.1719 823.1406L679.6406 828.8594L680.125 830.75L680.7031 828.84375L682.3906 823.1406L684.0156 823.1406L680.9375 833.0L679.2031 833.0L677.625 827.09375L677.25 825.4219L675.25 833.0L673.5156 833.0ZM691.6094 831.78125Q690.6719 832.5781 689.8125 832.89844Q688.9531 833.21875 687.96875 833.21875Q686.3594 833.21875 685.4844 832.4297Q684.6094 831.6406 684.6094 830.40625Q684.6094 829.6719 684.9375 829.0781Q685.2656 828.4844 685.7969 828.125Q686.3281 827.7656 687.0 827.5781Q687.5 827.4375 688.4844 827.3281Q690.5156 827.0781 691.46875 826.75Q691.46875 826.40625 691.46875 826.3125Q691.46875 825.2969 691.0 824.875Q690.3594 824.3125 689.09375 824.3125Q687.9219 824.3125 687.3594 824.71875Q686.7969 825.125 686.53125 826.1875L684.8906 825.9531Q685.125 824.90625 685.6328 824.2656Q686.1406 823.625 687.10156 823.27344Q688.0625 822.9219 689.34375 822.9219Q690.6094 822.9219 691.3906 823.21875Q692.1719 823.5156 692.5469 823.96875Q692.9219 824.4219 693.0625 825.1094Q693.15625 825.53125 693.15625 826.6406L693.15625 828.875Q693.15625 831.2031 693.2578 831.8203Q693.3594 832.4375 693.6875 833.0L691.9375 833.0Q691.6719 832.4844 691.6094 831.78125ZM691.46875 828.0625Q690.5625 828.4219 688.7344 828.6875Q687.7031 828.8281 687.28125 829.0156Q686.8594 829.2031 686.625 829.5625Q686.3906 829.9219 686.3906 830.3594Q686.3906 831.03125 686.89844 831.47656Q687.40625 831.9219 688.375 831.9219Q689.34375 831.9219 690.09375 831.4922Q690.84375 831.0625 691.2031 830.34375Q691.46875 829.7656 691.46875 828.6719L691.46875 828.0625ZM695.53125 833.0L695.53125 823.1406L697.03125 823.1406L697.03125 824.6406Q697.6094 823.59375 698.09375 823.2578Q698.5781 822.9219 699.1719 822.9219Q700.0156 822.9219 700.8906 823.46875L700.3125 825.0156Q699.7031 824.65625 699.0781 824.65625Q698.53125 824.65625 698.10156 824.9844Q697.6719 825.3125 697.4844 825.8906Q697.2031 826.78125 697.2031 827.84375L697.2031 833.0L695.53125 833.0ZM708.5 829.8281L710.21875 830.0469Q709.8125 831.5469 708.71094 832.3828Q707.6094 833.21875 705.8906 833.21875Q703.7344 833.21875 702.46875 831.8906Q701.2031 830.5625 701.2031 828.15625Q701.2031 825.6719 702.47656 824.2969Q703.75 822.9219 705.7969 822.9219Q707.78125 822.9219 709.03125 824.2656Q710.28125 825.6094 710.28125 828.0625Q710.28125 828.2031 710.2656 828.5L702.9219 828.5Q703.0156 830.125 703.84375 830.9844Q704.6719 831.84375 705.90625 831.84375Q706.8125 831.84375 707.46094 831.3672Q708.1094 830.8906 708.5 829.8281ZM703.0156 827.125L708.5156 827.125Q708.40625 825.8906 707.8906 825.2656Q707.09375 824.2969 705.8125 824.2969Q704.6719 824.2969 703.8828 825.0703Q703.09375 825.84375 703.0156 827.125Z" fill-rule="nonzero" fill="#000000"></path><path d="M672.0 640.0L672.0 684.0" fill-rule="evenodd" stroke="#073763" stroke-width="2.0" stroke-linejoin="round" stroke-linecap="butt"></path><path d="M668.69653 684.0L672.0 693.0762L675.30347 684.0Z" fill-rule="evenodd" fill="#073763" stroke="#073763" stroke-width="2.0" stroke-linecap="butt"></path><path d="M672.0 744.0L672.0 780.0" fill-rule="evenodd" stroke="#073763" stroke-width="2.0" stroke-linejoin="round" stroke-linecap="butt"></path><path d="M668.69653 780.0L672.0 789.0762L675.30347 780.0Z" fill-rule="evenodd" fill="#073763" stroke="#073763" stroke-width="2.0" stroke-linecap="butt"></path></svg>

