<?xml version="1.0" standalone="yes"?>

<svg version="1.1" viewBox="0.0 0.0 720.0 540.0" fill="none" stroke="none" stroke-linecap="square" stroke-miterlimit="10" xmlns="http://www.w3.org/2000/svg" xmlns:xlink="http://www.w3.org/1999/xlink"><path d="M263.52502 247.61409L407.52502 247.61409L407.52502 295.6141L263.52502 295.6141Z" fill-rule="nonzero" stroke="#000000" stroke-width="4.0" stroke-linejoin="round" stroke-linecap="butt"></path><path d="M291.97815 254.02034L293.77502 254.02034L293.77502 261.8641Q293.77502 263.9266 293.3141 265.12973Q292.85315 266.33286 291.6422 267.09067Q290.43127 267.84848 288.46252 267.84848Q286.55627 267.84848 285.33752 267.19223Q284.11877 266.53598 283.60315 265.28598Q283.08752 264.03598 283.08752 261.8641L283.08752 254.02034L284.8844 254.02034L284.8844 261.8641Q284.8844 263.62973 285.21252 264.47348Q285.54065 265.31723 286.34534 265.77036Q287.15002 266.22348 288.30627 266.22348Q290.29065 266.22348 291.1344 265.32504Q291.97815 264.4266 291.97815 261.8641L291.97815 254.02034ZM297.86877 267.6141L296.3219 267.6141L296.3219 254.02034L297.97815 254.02034L297.97815 258.8641Q299.04065 257.53598 300.68127 257.53598Q301.58752 257.53598 302.40002 257.90317Q303.21252 258.27036 303.73596 258.93442Q304.2594 259.59848 304.55627 260.53598Q304.85315 261.47348 304.85315 262.53598Q304.85315 265.06723 303.60315 266.45004Q302.35315 267.83286 300.60315 267.83286Q298.85315 267.83286 297.86877 266.37973L297.86877 267.6141ZM297.85315 262.6141Q297.85315 264.37973 298.3219 265.1766Q299.11877 266.45786 300.46252 266.45786Q301.55627 266.45786 302.35315 265.51254Q303.15002 264.56723 303.15002 262.6766Q303.15002 260.75473 302.3844 259.83286Q301.61877 258.91098 300.54065 258.91098Q299.4469 258.91098 298.65002 259.8641Q297.85315 260.81723 297.85315 262.6141ZM313.15002 267.6141L313.15002 266.16098Q312.0094 267.83286 310.02502 267.83286Q309.16565 267.83286 308.40784 267.49692Q307.65002 267.16098 307.28284 266.66098Q306.91565 266.16098 306.7594 265.4266Q306.66565 264.9266 306.66565 263.8641L306.66565 257.75473L308.33752 257.75473L308.33752 263.22348Q308.33752 264.53598 308.43127 264.9891Q308.58752 265.64536 309.10315 266.02036Q309.61877 266.39536 310.36877 266.39536Q311.11877 266.39536 311.77502 266.01254Q312.43127 265.62973 312.7047 264.96567Q312.97815 264.3016 312.97815 263.03598L312.97815 257.75473L314.65002 257.75473L314.65002 267.6141L313.15002 267.6141ZM317.0719 267.6141L317.0719 257.75473L318.5719 257.75473L318.5719 259.16098Q319.66565 257.53598 321.71252 257.53598Q322.60315 257.53598 323.35315 257.8563Q324.10315 258.1766 324.47034 258.70004Q324.83752 259.22348 324.99377 259.9266Q325.08752 260.39536 325.08752 261.5516L325.08752 267.6141L323.41565 267.6141L323.41565 261.6141Q323.41565 260.59848 323.22034 260.09067Q323.02502 259.58286 322.52502 259.28598Q322.02502 258.9891 321.35315 258.9891Q320.29065 258.9891 319.5172 259.66098Q318.74377 260.33286 318.74377 262.2391L318.74377 267.6141L317.0719 267.6141ZM331.10315 266.1141L331.33752 267.59848Q330.6344 267.7391 330.0719 267.7391Q329.16565 267.7391 328.66565 267.45004Q328.16565 267.16098 327.96252 266.70004Q327.7594 266.2391 327.7594 264.72348L327.7594 259.06723L326.52502 259.06723L326.52502 257.75473L327.7594 257.75473L327.7594 255.31721L329.41565 254.31721L329.41565 257.75473L331.10315 257.75473L331.10315 259.06723L329.41565 259.06723L329.41565 264.81723Q329.41565 265.53598 329.5016 265.7391Q329.58752 265.94223 329.79065 266.06723Q329.99377 266.19223 330.36877 266.19223Q330.6344 266.19223 331.10315 266.1141ZM339.08752 267.6141L339.08752 266.16098Q337.9469 267.83286 335.96252 267.83286Q335.10315 267.83286 334.34534 267.49692Q333.58752 267.16098 333.22034 266.66098Q332.85315 266.16098 332.6969 265.4266Q332.60315 264.9266 332.60315 263.8641L332.60315 257.75473L334.27502 257.75473L334.27502 263.22348Q334.27502 264.53598 334.36877 264.9891Q334.52502 265.64536 335.04065 266.02036Q335.55627 266.39536 336.30627 266.39536Q337.05627 266.39536 337.71252 266.01254Q338.36877 265.62973 338.6422 264.96567Q338.91565 264.3016 338.91565 263.03598L338.91565 257.75473L340.58752 257.75473L340.58752 267.6141L339.08752 267.6141ZM348.18127 267.6141L348.18127 257.75473L349.68127 257.75473L349.68127 259.14536Q350.1344 258.4266 350.90784 257.9813Q351.68127 257.53598 352.66565 257.53598Q353.7594 257.53598 354.46252 257.9891Q355.16565 258.44223 355.4469 259.27036Q356.61877 257.53598 358.49377 257.53598Q359.96252 257.53598 360.7516 258.34848Q361.54065 259.16098 361.54065 260.84848L361.54065 267.6141L359.86877 267.6141L359.86877 261.41098Q359.86877 260.41098 359.71252 259.96567Q359.55627 259.52036 359.1266 259.25473Q358.6969 258.9891 358.11877 258.9891Q357.08752 258.9891 356.40002 259.6766Q355.71252 260.3641 355.71252 261.89536L355.71252 267.6141L354.04065 267.6141L354.04065 261.20786Q354.04065 260.09848 353.6344 259.5438Q353.22815 258.9891 352.29065 258.9891Q351.58752 258.9891 350.98596 259.3563Q350.3844 259.72348 350.11877 260.44223Q349.85315 261.16098 349.85315 262.50473L349.85315 267.6141L348.18127 267.6141ZM363.10315 262.69223Q363.10315 259.95786 364.6344 258.62973Q365.90002 257.53598 367.72815 257.53598Q369.7594 257.53598 371.04846 258.87192Q372.33752 260.20786 372.33752 262.5516Q372.33752 264.45786 371.7672 265.5438Q371.1969 266.62973 370.11096 267.2313Q369.02502 267.83286 367.72815 267.83286Q365.66565 267.83286 364.3844 266.50473Q363.10315 265.1766 363.10315 262.69223ZM364.8219 262.69223Q364.8219 264.58286 365.65002 265.52036Q366.47815 266.45786 367.72815 266.45786Q368.97815 266.45786 369.79846 265.51254Q370.61877 264.56723 370.61877 262.62973Q370.61877 260.8016 369.79065 259.8641Q368.96252 258.9266 367.72815 258.9266Q366.47815 258.9266 365.65002 259.8641Q364.8219 260.8016 364.8219 262.69223ZM374.08752 267.6141L374.08752 257.75473L375.58752 257.75473L375.58752 259.25473Q376.16565 258.20786 376.65002 257.87192Q377.1344 257.53598 377.72815 257.53598Q378.5719 257.53598 379.4469 258.08286L378.86877 259.62973Q378.2594 259.27036 377.6344 259.27036Q377.08752 259.27036 376.65784 259.59848Q376.22815 259.9266 376.04065 260.50473Q375.7594 261.39536 375.7594 262.45786L375.7594 267.6141L374.08752 267.6141ZM387.0719 264.44223L388.79065 264.66098Q388.3844 266.16098 387.28284 266.99692Q386.18127 267.83286 384.46252 267.83286Q382.30627 267.83286 381.04065 266.50473Q379.77502 265.1766 379.77502 262.77036Q379.77502 260.28598 381.04846 258.91098Q382.3219 257.53598 384.36877 257.53598Q386.35315 257.53598 387.60315 258.87973Q388.85315 260.22348 388.85315 262.6766Q388.85315 262.81723 388.83752 263.1141L381.49377 263.1141Q381.58752 264.7391 382.41565 265.59848Q383.24377 266.45786 384.47815 266.45786Q385.3844 266.45786 386.03284 265.9813Q386.68127 265.50473 387.0719 264.44223ZM381.58752 261.7391L387.08752 261.7391Q386.97815 260.50473 386.46252 259.87973Q385.66565 258.91098 384.3844 258.91098Q383.24377 258.91098 382.4547 259.68442Q381.66565 260.45786 381.58752 261.7391Z" fill-rule="nonzero" fill="#000000"></path><path d="M293.72815 292.39536L293.72815 278.75473L295.2594 278.75473L295.2594 280.03598Q295.79065 279.28598 296.47034 278.91098Q297.15002 278.53598 298.10315 278.53598Q299.36877 278.53598 300.33752 279.18442Q301.30627 279.83286 301.79846 281.02036Q302.29065 282.20786 302.29065 283.6141Q302.29065 285.12973 301.74377 286.34067Q301.1969 287.5516 300.16565 288.19223Q299.1344 288.83286 297.99377 288.83286Q297.15002 288.83286 296.48596 288.4813Q295.8219 288.12973 295.40002 287.59848L295.40002 292.39536L293.72815 292.39536ZM295.24377 283.7391Q295.24377 285.64536 296.0172 286.5516Q296.79065 287.45786 297.8844 287.45786Q298.99377 287.45786 299.78284 286.52036Q300.5719 285.58286 300.5719 283.59848Q300.5719 281.72348 299.79846 280.78598Q299.02502 279.84848 297.9469 279.84848Q296.8844 279.84848 296.0641 280.84848Q295.24377 281.84848 295.24377 283.7391ZM304.08752 288.6141L304.08752 278.75473L305.58752 278.75473L305.58752 280.25473Q306.16565 279.20786 306.65002 278.87192Q307.1344 278.53598 307.72815 278.53598Q308.5719 278.53598 309.4469 279.08286L308.86877 280.62973Q308.2594 280.27036 307.6344 280.27036Q307.08752 280.27036 306.65784 280.59848Q306.22815 280.9266 306.04065 281.50473Q305.7594 282.39536 305.7594 283.45786L305.7594 288.6141L304.08752 288.6141ZM309.6969 283.69223Q309.6969 280.95786 311.22815 279.62973Q312.49377 278.53598 314.3219 278.53598Q316.35315 278.53598 317.6422 279.87192Q318.93127 281.20786 318.93127 283.5516Q318.93127 285.45786 318.36096 286.5438Q317.79065 287.62973 316.7047 288.2313Q315.61877 288.83286 314.3219 288.83286Q312.2594 288.83286 310.97815 287.50473Q309.6969 286.1766 309.6969 283.69223ZM311.41565 283.69223Q311.41565 285.58286 312.24377 286.52036Q313.0719 287.45786 314.3219 287.45786Q315.5719 287.45786 316.3922 286.51254Q317.21252 285.56723 317.21252 283.62973Q317.21252 281.8016 316.3844 280.8641Q315.55627 279.9266 314.3219 279.9266Q313.0719 279.9266 312.24377 280.8641Q311.41565 281.8016 311.41565 283.69223ZM327.08752 288.6141L327.08752 287.3641Q326.15002 288.83286 324.33752 288.83286Q323.16565 288.83286 322.17346 288.18442Q321.18127 287.53598 320.6422 286.37192Q320.10315 285.20786 320.10315 283.69223Q320.10315 282.22348 320.59534 281.02036Q321.08752 279.81723 322.0641 279.1766Q323.04065 278.53598 324.2594 278.53598Q325.15002 278.53598 325.84534 278.91098Q326.54065 279.28598 326.97815 279.89536L326.97815 275.02036L328.6344 275.02036L328.6344 288.6141L327.08752 288.6141ZM321.80627 283.69223Q321.80627 285.58286 322.61096 286.52036Q323.41565 287.45786 324.49377 287.45786Q325.58752 287.45786 326.35315 286.56723Q327.11877 285.6766 327.11877 283.83286Q327.11877 281.81723 326.33752 280.87192Q325.55627 279.9266 324.41565 279.9266Q323.30627 279.9266 322.55627 280.83286Q321.80627 281.7391 321.80627 283.69223ZM337.52502 288.6141L337.52502 287.16098Q336.3844 288.83286 334.40002 288.83286Q333.54065 288.83286 332.78284 288.49692Q332.02502 288.16098 331.65784 287.66098Q331.29065 287.16098 331.1344 286.4266Q331.04065 285.9266 331.04065 284.8641L331.04065 278.75473L332.71252 278.75473L332.71252 284.22348Q332.71252 285.53598 332.80627 285.9891Q332.96252 286.64536 333.47815 287.02036Q333.99377 287.39536 334.74377 287.39536Q335.49377 287.39536 336.15002 287.01254Q336.80627 286.62973 337.0797 285.96567Q337.35315 285.3016 337.35315 284.03598L337.35315 278.75473L339.02502 278.75473L339.02502 288.6141L337.52502 288.6141ZM347.8844 285.00473L349.52502 285.22348Q349.2594 286.91098 348.15002 287.87192Q347.04065 288.83286 345.41565 288.83286Q343.40002 288.83286 342.17346 287.51254Q340.9469 286.19223 340.9469 283.72348Q340.9469 282.12973 341.47034 280.93442Q341.99377 279.7391 343.0797 279.13754Q344.16565 278.53598 345.43127 278.53598Q347.04065 278.53598 348.05627 279.34848Q349.0719 280.16098 349.36877 281.66098L347.74377 281.91098Q347.5094 280.91098 346.91565 280.41098Q346.3219 279.91098 345.49377 279.91098Q344.22815 279.91098 343.4391 280.81723Q342.65002 281.72348 342.65002 283.6766Q342.65002 285.66098 343.41565 286.55942Q344.18127 287.45786 345.40002 287.45786Q346.3844 287.45786 347.04065 286.8563Q347.6969 286.25473 347.8844 285.00473ZM354.43127 287.1141L354.66565 288.59848Q353.96252 288.7391 353.40002 288.7391Q352.49377 288.7391 351.99377 288.45004Q351.49377 288.16098 351.29065 287.70004Q351.08752 287.2391 351.08752 285.72348L351.08752 280.06723L349.85315 280.06723L349.85315 278.75473L351.08752 278.75473L351.08752 276.31723L352.74377 275.31723L352.74377 278.75473L354.43127 278.75473L354.43127 280.06723L352.74377 280.06723L352.74377 285.81723Q352.74377 286.53598 352.8297 286.7391Q352.91565 286.94223 353.11877 287.06723Q353.3219 287.19223 353.6969 287.19223Q353.96252 287.19223 354.43127 287.1141ZM355.97815 276.9266L355.97815 275.02036L357.65002 275.02036L357.65002 276.9266L355.97815 276.9266ZM355.97815 288.6141L355.97815 278.75473L357.65002 278.75473L357.65002 288.6141L355.97815 288.6141ZM362.83752 288.6141L359.08752 278.75473L360.85315 278.75473L362.97815 284.66098Q363.3219 285.6141 363.60315 286.64536Q363.8219 285.8641 364.22815 284.77036L366.41565 278.75473L368.1344 278.75473L364.40002 288.6141L362.83752 288.6141ZM376.18127 285.44223L377.90002 285.66098Q377.49377 287.16098 376.3922 287.99692Q375.29065 288.83286 373.5719 288.83286Q371.41565 288.83286 370.15002 287.50473Q368.8844 286.1766 368.8844 283.77036Q368.8844 281.28598 370.15784 279.91098Q371.43127 278.53598 373.47815 278.53598Q375.46252 278.53598 376.71252 279.87973Q377.96252 281.22348 377.96252 283.6766Q377.96252 283.81723 377.9469 284.1141L370.60315 284.1141Q370.6969 285.7391 371.52502 286.59848Q372.35315 287.45786 373.58752 287.45786Q374.49377 287.45786 375.1422 286.9813Q375.79065 286.50473 376.18127 285.44223ZM370.6969 282.7391L376.1969 282.7391Q376.08752 281.50473 375.5719 280.87973Q374.77502 279.91098 373.49377 279.91098Q372.35315 279.91098 371.5641 280.68442Q370.77502 281.45786 370.6969 282.7391Z" fill-rule="nonzero" fill="#000000"></path><path d="M263.52502 359.6141L407.52502 359.6141L407.52502 407.6141L263.52502 407.6141Z" fill-rule="nonzero" stroke="#000000" stroke-width="1.0" stroke-linejoin="round" stroke-linecap="butt"></path><path d="M280.41565 379.6141L280.41565 366.02036L283.1344 366.02036L286.35315 375.64536Q286.79065 376.9891 286.99377 377.66098Q287.22815 376.91098 287.72815 375.47348L290.97815 366.02036L293.40002 366.02036L293.40002 379.6141L291.66565 379.6141L291.66565 368.22348L287.71252 379.6141L286.08752 379.6141L282.15002 368.03598L282.15002 379.6141L280.41565 379.6141ZM295.18127 374.69223Q295.18127 371.95786 296.71252 370.62973Q297.97815 369.53598 299.80627 369.53598Q301.83752 369.53598 303.1266 370.87192Q304.41565 372.20786 304.41565 374.5516Q304.41565 376.45786 303.84534 377.5438Q303.27502 378.62973 302.1891 379.2313Q301.10315 379.83286 299.80627 379.83286Q297.74377 379.83286 296.46252 378.50473Q295.18127 377.1766 295.18127 374.69223ZM296.90002 374.69223Q296.90002 376.58286 297.72815 377.52036Q298.55627 378.45786 299.80627 378.45786Q301.05627 378.45786 301.8766 377.51254Q302.6969 376.56723 302.6969 374.62973Q302.6969 372.8016 301.86877 371.8641Q301.04065 370.9266 299.80627 370.9266Q298.55627 370.9266 297.72815 371.8641Q296.90002 372.8016 296.90002 374.69223ZM306.16565 379.6141L306.16565 369.75473L307.66565 369.75473L307.66565 371.25473Q308.24377 370.20786 308.72815 369.87192Q309.21252 369.53598 309.80627 369.53598Q310.65002 369.53598 311.52502 370.08286L310.9469 371.62973Q310.33752 371.27036 309.71252 371.27036Q309.16565 371.27036 308.73596 371.59848Q308.30627 371.9266 308.11877 372.50473Q307.83752 373.39536 307.83752 374.45786L307.83752 379.6141L306.16565 379.6141ZM319.1344 376.44223L320.85315 376.66098Q320.4469 378.16098 319.34534 378.99692Q318.24377 379.83286 316.52502 379.83286Q314.36877 379.83286 313.10315 378.50473Q311.83752 377.1766 311.83752 374.77036Q311.83752 372.28598 313.11096 370.91098Q314.3844 369.53598 316.43127 369.53598Q318.41565 369.53598 319.66565 370.87973Q320.91565 372.22348 320.91565 374.6766Q320.91565 374.81723 320.90002 375.1141L313.55627 375.1141Q313.65002 376.7391 314.47815 377.59848Q315.30627 378.45786 316.54065 378.45786Q317.4469 378.45786 318.09534 377.9813Q318.74377 377.50473 319.1344 376.44223ZM313.65002 373.7391L319.15002 373.7391Q319.04065 372.50473 318.52502 371.87973Q317.72815 370.91098 316.4469 370.91098Q315.30627 370.91098 314.5172 371.68442Q313.72815 372.45786 313.65002 373.7391ZM327.9469 383.39536L327.9469 369.75473L329.47815 369.75473L329.47815 371.03598Q330.0094 370.28598 330.6891 369.91098Q331.36877 369.53598 332.3219 369.53598Q333.58752 369.53598 334.55627 370.18442Q335.52502 370.83286 336.0172 372.02036Q336.5094 373.20786 336.5094 374.6141Q336.5094 376.12973 335.96252 377.34067Q335.41565 378.5516 334.3844 379.19223Q333.35315 379.83286 332.21252 379.83286Q331.36877 379.83286 330.7047 379.4813Q330.04065 379.12973 329.61877 378.59848L329.61877 383.39536L327.9469 383.39536ZM329.46252 374.7391Q329.46252 376.64536 330.23596 377.5516Q331.0094 378.45786 332.10315 378.45786Q333.21252 378.45786 334.0016 377.52036Q334.79065 376.58286 334.79065 374.59848Q334.79065 372.72348 334.0172 371.78598Q333.24377 370.84848 332.16565 370.84848Q331.10315 370.84848 330.28284 371.84848Q329.46252 372.84848 329.46252 374.7391ZM338.30627 379.6141L338.30627 369.75473L339.80627 369.75473L339.80627 371.25473Q340.3844 370.20786 340.86877 369.87192Q341.35315 369.53598 341.9469 369.53598Q342.79065 369.53598 343.66565 370.08286L343.08752 371.62973Q342.47815 371.27036 341.85315 371.27036Q341.30627 371.27036 340.8766 371.59848Q340.4469 371.9266 340.2594 372.50473Q339.97815 373.39536 339.97815 374.45786L339.97815 379.6141L338.30627 379.6141ZM343.91565 374.69223Q343.91565 371.95786 345.4469 370.62973Q346.71252 369.53598 348.54065 369.53598Q350.5719 369.53598 351.86096 370.87192Q353.15002 372.20786 353.15002 374.5516Q353.15002 376.45786 352.5797 377.5438Q352.0094 378.62973 350.92346 379.2313Q349.83752 379.83286 348.54065 379.83286Q346.47815 379.83286 345.1969 378.50473Q343.91565 377.1766 343.91565 374.69223ZM345.6344 374.69223Q345.6344 376.58286 346.46252 377.52036Q347.29065 378.45786 348.54065 378.45786Q349.79065 378.45786 350.61096 377.51254Q351.43127 376.56723 351.43127 374.62973Q351.43127 372.8016 350.60315 371.8641Q349.77502 370.9266 348.54065 370.9266Q347.29065 370.9266 346.46252 371.8641Q345.6344 372.8016 345.6344 374.69223ZM354.91565 367.95786L354.91565 366.02036L356.5719 366.02036L356.5719 367.95786L354.91565 367.95786ZM352.79065 383.44223L353.10315 382.02036Q353.60315 382.14536 353.90002 382.14536Q354.41565 382.14536 354.66565 381.80942Q354.91565 381.47348 354.91565 380.1141L354.91565 369.75473L356.5719 369.75473L356.5719 380.14536Q356.5719 381.97348 356.10315 382.69223Q355.5094 383.6141 354.10315 383.6141Q353.43127 383.6141 352.79065 383.44223ZM365.80627 376.44223L367.52502 376.66098Q367.11877 378.16098 366.0172 378.99692Q364.91565 379.83286 363.1969 379.83286Q361.04065 379.83286 359.77502 378.50473Q358.5094 377.1766 358.5094 374.77036Q358.5094 372.28598 359.78284 370.91098Q361.05627 369.53598 363.10315 369.53598Q365.08752 369.53598 366.33752 370.87973Q367.58752 372.22348 367.58752 374.6766Q367.58752 374.81723 367.5719 375.1141L360.22815 375.1141Q360.3219 376.7391 361.15002 377.59848Q361.97815 378.45786 363.21252 378.45786Q364.11877 378.45786 364.7672 377.9813Q365.41565 377.50473 365.80627 376.44223ZM360.3219 373.7391L365.8219 373.7391Q365.71252 372.50473 365.1969 371.87973Q364.40002 370.91098 363.11877 370.91098Q361.97815 370.91098 361.1891 371.68442Q360.40002 372.45786 360.3219 373.7391ZM375.86877 376.00473L377.5094 376.22348Q377.24377 377.91098 376.1344 378.87192Q375.02502 379.83286 373.40002 379.83286Q371.3844 379.83286 370.15784 378.51254Q368.93127 377.19223 368.93127 374.72348Q368.93127 373.12973 369.4547 371.93442Q369.97815 370.7391 371.0641 370.13754Q372.15002 369.53598 373.41565 369.53598Q375.02502 369.53598 376.04065 370.34848Q377.05627 371.16098 377.35315 372.66098L375.72815 372.91098Q375.49377 371.91098 374.90002 371.41098Q374.30627 370.91098 373.47815 370.91098Q372.21252 370.91098 371.42346 371.81723Q370.6344 372.72348 370.6344 374.6766Q370.6344 376.66098 371.40002 377.55942Q372.16565 378.45786 373.3844 378.45786Q374.36877 378.45786 375.02502 377.8563Q375.68127 377.25473 375.86877 376.00473ZM382.41565 378.1141L382.65002 379.59848Q381.9469 379.7391 381.3844 379.7391Q380.47815 379.7391 379.97815 379.45004Q379.47815 379.16098 379.27502 378.70004Q379.0719 378.2391 379.0719 376.72348L379.0719 371.06723L377.83752 371.06723L377.83752 369.75473L379.0719 369.75473L379.0719 367.31723L380.72815 366.31723L380.72815 369.75473L382.41565 369.75473L382.41565 371.06723L380.72815 371.06723L380.72815 376.81723Q380.72815 377.53598 380.8141 377.7391Q380.90002 377.94223 381.10315 378.06723Q381.30627 378.19223 381.68127 378.19223Q381.9469 378.19223 382.41565 378.1141ZM383.27502 376.6766L384.93127 376.41098Q385.0719 377.41098 385.7047 377.93442Q386.33752 378.45786 387.47815 378.45786Q388.6344 378.45786 389.1891 377.9891Q389.74377 377.52036 389.74377 376.89536Q389.74377 376.33286 389.2594 376.00473Q388.91565 375.78598 387.55627 375.44223Q385.71252 374.97348 385.0016 374.63754Q384.29065 374.3016 383.92346 373.70004Q383.55627 373.09848 383.55627 372.37973Q383.55627 371.72348 383.86096 371.16098Q384.16565 370.59848 384.68127 370.22348Q385.0719 369.94223 385.74377 369.7391Q386.41565 369.53598 387.18127 369.53598Q388.35315 369.53598 389.22815 369.87192Q390.10315 370.20786 390.5172 370.77817Q390.93127 371.34848 391.08752 372.3016L389.46252 372.52036Q389.35315 371.77036 388.8141 371.34067Q388.27502 370.91098 387.30627 370.91098Q386.15002 370.91098 385.66565 371.2938Q385.18127 371.6766 385.18127 372.1766Q385.18127 372.50473 385.3844 372.77036Q385.58752 373.03598 386.02502 373.20786Q386.27502 373.3016 387.49377 373.64536Q389.2594 374.1141 389.96252 374.41098Q390.66565 374.70786 391.0641 375.28598Q391.46252 375.8641 391.46252 376.72348Q391.46252 377.5516 390.97815 378.2938Q390.49377 379.03598 389.5719 379.43442Q388.65002 379.83286 387.49377 379.83286Q385.5719 379.83286 384.5641 379.03598Q383.55627 378.2391 383.27502 376.6766Z" fill-rule="nonzero" fill="#000000"></path><path d="M277.0094 395.69223Q277.0094 392.95786 278.54065 391.62973Q279.80627 390.53598 281.6344 390.53598Q283.66565 390.53598 284.9547 391.87192Q286.24377 393.20786 286.24377 395.5516Q286.24377 397.45786 285.67346 398.5438Q285.10315 399.62973 284.0172 400.2313Q282.93127 400.83286 281.6344 400.83286Q279.5719 400.83286 278.29065 399.50473Q277.0094 398.1766 277.0094 395.69223ZM278.72815 395.69223Q278.72815 397.58286 279.55627 398.52036Q280.3844 399.45786 281.6344 399.45786Q282.8844 399.45786 283.7047 398.51254Q284.52502 397.56723 284.52502 395.62973Q284.52502 393.8016 283.6969 392.8641Q282.86877 391.9266 281.6344 391.9266Q280.3844 391.9266 279.55627 392.8641Q278.72815 393.8016 278.72815 395.69223ZM288.0094 400.6141L288.0094 390.75473L289.5094 390.75473L289.5094 392.16098Q290.60315 390.53598 292.65002 390.53598Q293.54065 390.53598 294.29065 390.8563Q295.04065 391.1766 295.40784 391.70004Q295.77502 392.22348 295.93127 392.9266Q296.02502 393.39536 296.02502 394.5516L296.02502 400.6141L294.35315 400.6141L294.35315 394.6141Q294.35315 393.59848 294.15784 393.09067Q293.96252 392.58286 293.46252 392.28598Q292.96252 391.9891 292.29065 391.9891Q291.22815 391.9891 290.4547 392.66098Q289.68127 393.33286 289.68127 395.2391L289.68127 400.6141L288.0094 400.6141ZM303.71252 400.6141L303.71252 387.02036L305.5094 387.02036L305.5094 399.00473L312.21252 399.00473L312.21252 400.6141L303.71252 400.6141ZM320.3844 399.39536Q319.4469 400.19223 318.58752 400.51254Q317.72815 400.83286 316.74377 400.83286Q315.1344 400.83286 314.2594 400.0438Q313.3844 399.25473 313.3844 398.02036Q313.3844 397.28598 313.71252 396.69223Q314.04065 396.09848 314.5719 395.7391Q315.10315 395.37973 315.77502 395.19223Q316.27502 395.0516 317.2594 394.94223Q319.29065 394.69223 320.24377 394.3641Q320.24377 394.02036 320.24377 393.9266Q320.24377 392.91098 319.77502 392.4891Q319.1344 391.9266 317.86877 391.9266Q316.6969 391.9266 316.1344 392.33286Q315.5719 392.7391 315.30627 393.8016L313.66565 393.56723Q313.90002 392.52036 314.40784 391.87973Q314.91565 391.2391 315.8766 390.88754Q316.83752 390.53598 318.11877 390.53598Q319.3844 390.53598 320.16565 390.83286Q320.9469 391.12973 321.3219 391.58286Q321.6969 392.03598 321.83752 392.72348Q321.93127 393.14536 321.93127 394.25473L321.93127 396.4891Q321.93127 398.81723 322.03284 399.43442Q322.1344 400.0516 322.46252 400.6141L320.71252 400.6141Q320.4469 400.09848 320.3844 399.39536ZM320.24377 395.6766Q319.33752 396.03598 317.5094 396.3016Q316.47815 396.44223 316.05627 396.62973Q315.6344 396.81723 315.40002 397.1766Q315.16565 397.53598 315.16565 397.97348Q315.16565 398.64536 315.67346 399.09067Q316.18127 399.53598 317.15002 399.53598Q318.11877 399.53598 318.86877 399.1063Q319.61877 398.6766 319.97815 397.95786Q320.24377 397.37973 320.24377 396.28598L320.24377 395.6766ZM330.77502 400.6141L330.77502 399.16098Q329.6344 400.83286 327.65002 400.83286Q326.79065 400.83286 326.03284 400.49692Q325.27502 400.16098 324.90784 399.66098Q324.54065 399.16098 324.3844 398.4266Q324.29065 397.9266 324.29065 396.8641L324.29065 390.75473L325.96252 390.75473L325.96252 396.22348Q325.96252 397.53598 326.05627 397.9891Q326.21252 398.64536 326.72815 399.02036Q327.24377 399.39536 327.99377 399.39536Q328.74377 399.39536 329.40002 399.01254Q330.05627 398.62973 330.3297 397.96567Q330.60315 397.3016 330.60315 396.03598L330.60315 390.75473L332.27502 390.75473L332.27502 400.6141L330.77502 400.6141ZM334.6969 400.6141L334.6969 390.75473L336.1969 390.75473L336.1969 392.16098Q337.29065 390.53598 339.33752 390.53598Q340.22815 390.53598 340.97815 390.8563Q341.72815 391.1766 342.09534 391.70004Q342.46252 392.22348 342.61877 392.9266Q342.71252 393.39536 342.71252 394.5516L342.71252 400.6141L341.04065 400.6141L341.04065 394.6141Q341.04065 393.59848 340.84534 393.09067Q340.65002 392.58286 340.15002 392.28598Q339.65002 391.9891 338.97815 391.9891Q337.91565 391.9891 337.1422 392.66098Q336.36877 393.33286 336.36877 395.2391L336.36877 400.6141L334.6969 400.6141ZM351.5094 397.00473L353.15002 397.22348Q352.8844 398.91098 351.77502 399.87192Q350.66565 400.83286 349.04065 400.83286Q347.02502 400.83286 345.79846 399.51254Q344.5719 398.19223 344.5719 395.72348Q344.5719 394.12973 345.09534 392.93442Q345.61877 391.7391 346.7047 391.13754Q347.79065 390.53598 349.05627 390.53598Q350.66565 390.53598 351.68127 391.34848Q352.6969 392.16098 352.99377 393.66098L351.36877 393.91098Q351.1344 392.91098 350.54065 392.41098Q349.9469 391.91098 349.11877 391.91098Q347.85315 391.91098 347.0641 392.81723Q346.27502 393.72348 346.27502 395.6766Q346.27502 397.66098 347.04065 398.55942Q347.80627 399.45786 349.02502 399.45786Q350.0094 399.45786 350.66565 398.8563Q351.3219 398.25473 351.5094 397.00473ZM354.40002 400.6141L354.40002 387.02036L356.0719 387.02036L356.0719 391.89536Q357.24377 390.53598 359.02502 390.53598Q360.11877 390.53598 360.92346 390.96567Q361.72815 391.39536 362.0797 392.16098Q362.43127 392.9266 362.43127 394.3641L362.43127 400.6141L360.7594 400.6141L360.7594 394.3641Q360.7594 393.1141 360.21252 392.5438Q359.66565 391.97348 358.68127 391.97348Q357.93127 391.97348 357.28284 392.3563Q356.6344 392.7391 356.35315 393.40317Q356.0719 394.06723 356.0719 395.22348L356.0719 400.6141L354.40002 400.6141ZM364.77502 404.39536L364.77502 390.75473L366.30627 390.75473L366.30627 392.03598Q366.83752 391.28598 367.5172 390.91098Q368.1969 390.53598 369.15002 390.53598Q370.41565 390.53598 371.3844 391.18442Q372.35315 391.83286 372.84534 393.02036Q373.33752 394.20786 373.33752 395.6141Q373.33752 397.12973 372.79065 398.34067Q372.24377 399.5516 371.21252 400.19223Q370.18127 400.83286 369.04065 400.83286Q368.1969 400.83286 367.53284 400.4813Q366.86877 400.12973 366.4469 399.59848L366.4469 404.39536L364.77502 404.39536ZM366.29065 395.7391Q366.29065 397.64536 367.0641 398.5516Q367.83752 399.45786 368.93127 399.45786Q370.04065 399.45786 370.8297 398.52036Q371.61877 397.58286 371.61877 395.59848Q371.61877 393.72348 370.84534 392.78598Q370.0719 391.84848 368.99377 391.84848Q367.93127 391.84848 367.11096 392.84848Q366.29065 393.84848 366.29065 395.7391ZM381.58752 399.39536Q380.65002 400.19223 379.79065 400.51254Q378.93127 400.83286 377.9469 400.83286Q376.33752 400.83286 375.46252 400.0438Q374.58752 399.25473 374.58752 398.02036Q374.58752 397.28598 374.91565 396.69223Q375.24377 396.09848 375.77502 395.7391Q376.30627 395.37973 376.97815 395.19223Q377.47815 395.0516 378.46252 394.94223Q380.49377 394.69223 381.4469 394.3641Q381.4469 394.02036 381.4469 393.9266Q381.4469 392.91098 380.97815 392.4891Q380.33752 391.9266 379.0719 391.9266Q377.90002 391.9266 377.33752 392.33286Q376.77502 392.7391 376.5094 393.8016L374.86877 393.56723Q375.10315 392.52036 375.61096 391.87973Q376.11877 391.2391 377.0797 390.88754Q378.04065 390.53598 379.3219 390.53598Q380.58752 390.53598 381.36877 390.83286Q382.15002 391.12973 382.52502 391.58286Q382.90002 392.03598 383.04065 392.72348Q383.1344 393.14536 383.1344 394.25473L383.1344 396.4891Q383.1344 398.81723 383.23596 399.43442Q383.33752 400.0516 383.66565 400.6141L381.91565 400.6141Q381.65002 400.09848 381.58752 399.39536ZM381.4469 395.6766Q380.54065 396.03598 378.71252 396.3016Q377.68127 396.44223 377.2594 396.62973Q376.83752 396.81723 376.60315 397.1766Q376.36877 397.53598 376.36877 397.97348Q376.36877 398.64536 376.8766 399.09067Q377.3844 399.53598 378.35315 399.53598Q379.3219 399.53598 380.0719 399.1063Q380.8219 398.6766 381.18127 397.95786Q381.4469 397.37973 381.4469 396.28598L381.4469 395.6766ZM391.91565 400.6141L391.91565 399.3641Q390.97815 400.83286 389.16565 400.83286Q387.99377 400.83286 387.0016 400.18442Q386.0094 399.53598 385.47034 398.37192Q384.93127 397.20786 384.93127 395.69223Q384.93127 394.22348 385.42346 393.02036Q385.91565 391.81723 386.8922 391.1766Q387.86877 390.53598 389.08752 390.53598Q389.97815 390.53598 390.67346 390.91098Q391.36877 391.28598 391.80627 391.89536L391.80627 387.02036L393.46252 387.02036L393.46252 400.6141L391.91565 400.6141ZM386.6344 395.69223Q386.6344 397.58286 387.4391 398.52036Q388.24377 399.45786 389.3219 399.45786Q390.41565 399.45786 391.18127 398.56723Q391.9469 397.6766 391.9469 395.83286Q391.9469 393.81723 391.16565 392.87192Q390.3844 391.9266 389.24377 391.9266Q388.1344 391.9266 387.3844 392.83286Q386.6344 393.7391 386.6344 395.69223Z" fill-rule="nonzero" fill="#000000"></path><path d="M375.52505 359.6141L375.52505 307.6141" fill-rule="evenodd" stroke="#073763" stroke-width="2.0" stroke-linejoin="round" stroke-linecap="butt"></path><path d="M378.82852 307.6141L375.52505 298.5379L372.2216 307.6141Z" fill-rule="evenodd" fill="#073763" stroke="#073763" stroke-width="2.0" stroke-linecap="butt"></path><path d="M303.52502 295.6141L303.52502 347.6141" fill-rule="evenodd" stroke="#073763" stroke-width="2.0" stroke-linejoin="round" stroke-linecap="butt"></path><path d="M300.22156 347.6141L303.52502 356.6903L306.8285 347.6141Z" fill-rule="evenodd" fill="#073763" stroke="#073763" stroke-width="2.0" stroke-linecap="butt"></path><path d="M256.0 120.0L416.25198 120.0L416.25198 168.0L256.0 168.0Z" fill-rule="nonzero" stroke="#000000" stroke-width="1.0" stroke-linejoin="round" stroke-linecap="butt"></path><path d="M282.21875 126.40625L284.01562 126.40625L284.01562 134.25Q284.01562 136.3125 283.5547 137.51562Q283.09375 138.71875 281.8828 139.47656Q280.67188 140.23438 278.70312 140.23438Q276.79688 140.23438 275.57812 139.57812Q274.35938 138.92188 273.84375 137.67188Q273.32812 136.42188 273.32812 134.25L273.32812 126.40625L275.125 126.40625L275.125 134.25Q275.125 136.01562 275.45312 136.85938Q275.78125 137.70312 276.58594 138.15625Q277.39062 138.60938 278.54688 138.60938Q280.53125 138.60938 281.375 137.71094Q282.21875 136.8125 282.21875 134.25L282.21875 126.40625ZM288.09375 140.0L286.54688 140.0L286.54688 126.40625L288.20312 126.40625L288.20312 131.25Q289.26562 129.92188 290.90625 129.92188Q291.8125 129.92188 292.625 130.28906Q293.4375 130.65625 293.96094 131.32031Q294.48438 131.98438 294.78125 132.92188Q295.07812 133.85938 295.07812 134.92188Q295.07812 137.45312 293.82812 138.83594Q292.57812 140.21875 290.82812 140.21875Q289.07812 140.21875 288.09375 138.76562L288.09375 140.0ZM288.07812 135.0Q288.07812 136.76562 288.54688 137.5625Q289.34375 138.84375 290.6875 138.84375Q291.78125 138.84375 292.57812 137.89844Q293.375 136.95312 293.375 135.0625Q293.375 133.14062 292.60938 132.21875Q291.84375 131.29688 290.76562 131.29688Q289.67188 131.29688 288.875 132.25Q288.07812 133.20312 288.07812 135.0ZM303.375 140.0L303.375 138.54688Q302.23438 140.21875 300.25 140.21875Q299.39062 140.21875 298.6328 139.88281Q297.875 139.54688 297.5078 139.04688Q297.14062 138.54688 296.98438 137.8125Q296.89062 137.3125 296.89062 136.25L296.89062 130.14062L298.5625 130.14062L298.5625 135.60938Q298.5625 136.92188 298.65625 137.375Q298.8125 138.03125 299.32812 138.40625Q299.84375 138.78125 300.59375 138.78125Q301.34375 138.78125 302.0 138.39844Q302.65625 138.01562 302.9297 137.35156Q303.20312 136.6875 303.20312 135.42188L303.20312 130.14062L304.875 130.14062L304.875 140.0L303.375 140.0ZM307.29688 140.0L307.29688 130.14062L308.79688 130.14062L308.79688 131.54688Q309.89062 129.92188 311.9375 129.92188Q312.82812 129.92188 313.57812 130.24219Q314.32812 130.5625 314.6953 131.08594Q315.0625 131.60938 315.21875 132.3125Q315.3125 132.78125 315.3125 133.9375L315.3125 140.0L313.64062 140.0L313.64062 134.0Q313.64062 132.98438 313.4453 132.47656Q313.25 131.96875 312.75 131.67188Q312.25 131.375 311.57812 131.375Q310.51562 131.375 309.7422 132.04688Q308.96875 132.71875 308.96875 134.625L308.96875 140.0L307.29688 140.0ZM321.32812 138.5L321.5625 139.98438Q320.85938 140.125 320.29688 140.125Q319.39062 140.125 318.89062 139.83594Q318.39062 139.54688 318.1875 139.08594Q317.98438 138.625 317.98438 137.10938L317.98438 131.45312L316.75 131.45312L316.75 130.14062L317.98438 130.14062L317.98438 127.703125L319.64062 126.703125L319.64062 130.14062L321.32812 130.14062L321.32812 131.45312L319.64062 131.45312L319.64062 137.20312Q319.64062 137.92188 319.72656 138.125Q319.8125 138.32812 320.01562 138.45312Q320.21875 138.57812 320.59375 138.57812Q320.85938 138.57812 321.32812 138.5ZM329.3125 140.0L329.3125 138.54688Q328.17188 140.21875 326.1875 140.21875Q325.32812 140.21875 324.5703 139.88281Q323.8125 139.54688 323.4453 139.04688Q323.07812 138.54688 322.92188 137.8125Q322.82812 137.3125 322.82812 136.25L322.82812 130.14062L324.5 130.14062L324.5 135.60938Q324.5 136.92188 324.59375 137.375Q324.75 138.03125 325.26562 138.40625Q325.78125 138.78125 326.53125 138.78125Q327.28125 138.78125 327.9375 138.39844Q328.59375 138.01562 328.8672 137.35156Q329.14062 136.6875 329.14062 135.42188L329.14062 130.14062L330.8125 130.14062L330.8125 140.0L329.3125 140.0ZM332.59375 135.92188L332.59375 134.23438L337.71875 134.23438L337.71875 135.92188L332.59375 135.92188ZM338.78125 137.0625L340.4375 136.79688Q340.57812 137.79688 341.21094 138.32031Q341.84375 138.84375 342.98438 138.84375Q344.14062 138.84375 344.6953 138.375Q345.25 137.90625 345.25 137.28125Q345.25 136.71875 344.76562 136.39062Q344.42188 136.17188 343.0625 135.82812Q341.21875 135.35938 340.5078 135.02344Q339.79688 134.6875 339.4297 134.08594Q339.0625 133.48438 339.0625 132.76562Q339.0625 132.10938 339.3672 131.54688Q339.67188 130.98438 340.1875 130.60938Q340.57812 130.32812 341.25 130.125Q341.92188 129.92188 342.6875 129.92188Q343.85938 129.92188 344.73438 130.25781Q345.60938 130.59375 346.02344 131.16406Q346.4375 131.73438 346.59375 132.6875L344.96875 132.90625Q344.85938 132.15625 344.3203 131.72656Q343.78125 131.29688 342.8125 131.29688Q341.65625 131.29688 341.17188 131.67969Q340.6875 132.0625 340.6875 132.5625Q340.6875 132.89062 340.89062 133.15625Q341.09375 133.42188 341.53125 133.59375Q341.78125 133.6875 343.0 134.03125Q344.76562 134.5 345.46875 134.79688Q346.17188 135.09375 346.5703 135.67188Q346.96875 136.25 346.96875 137.10938Q346.96875 137.9375 346.48438 138.67969Q346.0 139.42188 345.07812 139.82031Q344.15625 140.21875 343.0 140.21875Q341.07812 140.21875 340.0703 139.42188Q339.0625 138.625 338.78125 137.0625ZM348.78125 143.78125L348.78125 130.14062L350.3125 130.14062L350.3125 131.42188Q350.84375 130.67188 351.52344 130.29688Q352.20312 129.92188 353.15625 129.92188Q354.42188 129.92188 355.39062 130.57031Q356.35938 131.21875 356.85156 132.40625Q357.34375 133.59375 357.34375 135.0Q357.34375 136.51562 356.79688 137.72656Q356.25 138.9375 355.21875 139.57812Q354.1875 140.21875 353.04688 140.21875Q352.20312 140.21875 351.53906 139.86719Q350.875 139.51562 350.45312 138.98438L350.45312 143.78125L348.78125 143.78125ZM350.29688 135.125Q350.29688 137.03125 351.0703 137.9375Q351.84375 138.84375 352.9375 138.84375Q354.04688 138.84375 354.83594 137.90625Q355.625 136.96875 355.625 134.98438Q355.625 133.10938 354.85156 132.17188Q354.07812 131.23438 353.0 131.23438Q351.9375 131.23438 351.1172 132.23438Q350.29688 133.23438 350.29688 135.125ZM365.90625 136.82812L367.625 137.04688Q367.21875 138.54688 366.1172 139.38281Q365.01562 140.21875 363.29688 140.21875Q361.14062 140.21875 359.875 138.89062Q358.60938 137.5625 358.60938 135.15625Q358.60938 132.67188 359.8828 131.29688Q361.15625 129.92188 363.20312 129.92188Q365.1875 129.92188 366.4375 131.26562Q367.6875 132.60938 367.6875 135.0625Q367.6875 135.20312 367.67188 135.5L360.32812 135.5Q360.42188 137.125 361.25 137.98438Q362.07812 138.84375 363.3125 138.84375Q364.21875 138.84375 364.8672 138.36719Q365.51562 137.89062 365.90625 136.82812ZM360.42188 134.125L365.92188 134.125Q365.8125 132.89062 365.29688 132.26562Q364.5 131.29688 363.21875 131.29688Q362.07812 131.29688 361.28906 132.07031Q360.5 132.84375 360.42188 134.125ZM375.96875 136.39062L377.60938 136.60938Q377.34375 138.29688 376.23438 139.25781Q375.125 140.21875 373.5 140.21875Q371.48438 140.21875 370.2578 138.89844Q369.03125 137.57812 369.03125 135.10938Q369.03125 133.51562 369.5547 132.32031Q370.07812 131.125 371.16406 130.52344Q372.25 129.92188 373.51562 129.92188Q375.125 129.92188 376.14062 130.73438Q377.15625 131.54688 377.45312 133.04688L375.82812 133.29688Q375.59375 132.29688 375.0 131.79688Q374.40625 131.29688 373.57812 131.29688Q372.3125 131.29688 371.52344 132.20312Q370.73438 133.10938 370.73438 135.0625Q370.73438 137.04688 371.5 137.94531Q372.26562 138.84375 373.48438 138.84375Q374.46875 138.84375 375.125 138.24219Q375.78125 137.64062 375.96875 136.39062ZM378.875 128.3125L378.875 126.40625L380.54688 126.40625L380.54688 128.3125L378.875 128.3125ZM378.875 140.0L378.875 130.14062L380.54688 130.14062L380.54688 140.0L378.875 140.0ZM383.40625 140.0L383.40625 131.45312L381.92188 131.45312L381.92188 130.14062L383.40625 130.14062L383.40625 129.09375Q383.40625 128.10938 383.57812 127.625Q383.8125 126.96875 384.42188 126.57031Q385.03125 126.171875 386.125 126.171875Q386.82812 126.171875 387.6875 126.328125L387.4375 127.796875Q386.92188 127.703125 386.45312 127.703125Q385.6875 127.703125 385.375 128.02344Q385.0625 128.34375 385.0625 129.23438L385.0625 130.14062L386.98438 130.14062L386.98438 131.45312L385.0625 131.45312L385.0625 140.0L383.40625 140.0ZM388.20312 128.3125L388.20312 126.40625L389.875 126.40625L389.875 128.3125L388.20312 128.3125ZM388.20312 140.0L388.20312 130.14062L389.875 130.14062L389.875 140.0L388.20312 140.0ZM398.76562 136.39062L400.40625 136.60938Q400.14062 138.29688 399.03125 139.25781Q397.92188 140.21875 396.29688 140.21875Q394.28125 140.21875 393.0547 138.89844Q391.82812 137.57812 391.82812 135.10938Q391.82812 133.51562 392.35156 132.32031Q392.875 131.125 393.96094 130.52344Q395.04688 129.92188 396.3125 129.92188Q397.92188 129.92188 398.9375 130.73438Q399.95312 131.54688 400.25 133.04688L398.625 133.29688Q398.39062 132.29688 397.79688 131.79688Q397.20312 131.29688 396.375 131.29688Q395.10938 131.29688 394.3203 132.20312Q393.53125 133.10938 393.53125 135.0625Q393.53125 137.04688 394.29688 137.94531Q395.0625 138.84375 396.28125 138.84375Q397.26562 138.84375 397.92188 138.24219Q398.57812 137.64062 398.76562 136.39062Z" fill-rule="nonzero" fill="#000000"></path><path d="M321.32812 159.5L321.5625 160.98438Q320.85938 161.125 320.29688 161.125Q319.39062 161.125 318.89062 160.83594Q318.39062 160.54688 318.1875 160.08594Q317.98438 159.625 317.98438 158.10938L317.98438 152.45312L316.75 152.45312L316.75 151.14062L317.98438 151.14062L317.98438 148.70312L319.64062 147.70312L319.64062 151.14062L321.32812 151.14062L321.32812 152.45312L319.64062 152.45312L319.64062 158.20312Q319.64062 158.92188 319.72656 159.125Q319.8125 159.32812 320.01562 159.45312Q320.21875 159.57812 320.59375 159.57812Q320.85938 159.57812 321.32812 159.5ZM322.21875 156.07812Q322.21875 153.34375 323.75 152.01562Q325.01562 150.92188 326.84375 150.92188Q328.875 150.92188 330.16406 152.25781Q331.45312 153.59375 331.45312 155.9375Q331.45312 157.84375 330.8828 158.92969Q330.3125 160.01562 329.22656 160.61719Q328.14062 161.21875 326.84375 161.21875Q324.78125 161.21875 323.5 159.89062Q322.21875 158.5625 322.21875 156.07812ZM323.9375 156.07812Q323.9375 157.96875 324.76562 158.90625Q325.59375 159.84375 326.84375 159.84375Q328.09375 159.84375 328.91406 158.89844Q329.73438 157.95312 329.73438 156.01562Q329.73438 154.1875 328.90625 153.25Q328.07812 152.3125 326.84375 152.3125Q325.59375 152.3125 324.76562 153.25Q323.9375 154.1875 323.9375 156.07812ZM332.59375 156.07812Q332.59375 153.34375 334.125 152.01562Q335.39062 150.92188 337.21875 150.92188Q339.25 150.92188 340.53906 152.25781Q341.82812 153.59375 341.82812 155.9375Q341.82812 157.84375 341.2578 158.92969Q340.6875 160.01562 339.60156 160.61719Q338.51562 161.21875 337.21875 161.21875Q335.15625 161.21875 333.875 159.89062Q332.59375 158.5625 332.59375 156.07812ZM334.3125 156.07812Q334.3125 157.96875 335.14062 158.90625Q335.96875 159.84375 337.21875 159.84375Q338.46875 159.84375 339.28906 158.89844Q340.10938 157.95312 340.10938 156.01562Q340.10938 154.1875 339.28125 153.25Q338.45312 152.3125 337.21875 152.3125Q335.96875 152.3125 335.14062 153.25Q334.3125 154.1875 334.3125 156.07812ZM343.5625 161.0L343.5625 147.40625L345.23438 147.40625L345.23438 161.0L343.5625 161.0ZM347.07812 158.0625L348.73438 157.79688Q348.875 158.79688 349.5078 159.32031Q350.14062 159.84375 351.28125 159.84375Q352.4375 159.84375 352.9922 159.375Q353.54688 158.90625 353.54688 158.28125Q353.54688 157.71875 353.0625 157.39062Q352.71875 157.17188 351.35938 156.82812Q349.51562 156.35938 348.8047 156.02344Q348.09375 155.6875 347.72656 155.08594Q347.35938 154.48438 347.35938 153.76562Q347.35938 153.10938 347.66406 152.54688Q347.96875 151.98438 348.48438 151.60938Q348.875 151.32812 349.54688 151.125Q350.21875 150.92188 350.98438 150.92188Q352.15625 150.92188 353.03125 151.25781Q353.90625 151.59375 354.3203 152.16406Q354.73438 152.73438 354.89062 153.6875L353.26562 153.90625Q353.15625 153.15625 352.6172 152.72656Q352.07812 152.29688 351.10938 152.29688Q349.95312 152.29688 349.46875 152.67969Q348.98438 153.0625 348.98438 153.5625Q348.98438 153.89062 349.1875 154.15625Q349.39062 154.42188 349.82812 154.59375Q350.07812 154.6875 351.29688 155.03125Q353.0625 155.5 353.76562 155.79688Q354.46875 156.09375 354.8672 156.67188Q355.26562 157.25 355.26562 158.10938Q355.26562 158.9375 354.78125 159.67969Q354.29688 160.42188 353.375 160.82031Q352.45312 161.21875 351.29688 161.21875Q349.375 161.21875 348.3672 160.42188Q347.35938 159.625 347.07812 158.0625Z" fill-rule="nonzero" fill="#000000"></path><path d="M336.12598 168.0L335.6156 235.61443" fill-rule="evenodd" stroke="#073763" stroke-width="2.0" stroke-linejoin="round" stroke-linecap="butt"></path><path d="M332.31223 235.5895L335.5471 244.69037L338.91898 235.63937Z" fill-rule="evenodd" fill="#073763" stroke="#073763" stroke-width="2.0" stroke-linecap="butt"></path><path d="M39.940628 119.79221L183.94063 119.79221L183.94063 167.7922L39.940628 167.7922Z" fill-rule="nonzero" stroke="#000000" stroke-width="1.0" stroke-linejoin="round" stroke-linecap="butt"></path><path d="M66.14375 150.2922L66.14375 136.69846L71.25313 136.69846Q72.8 136.69846 73.745316 137.1047Q74.69063 137.51096 75.22188 138.37033Q75.75313 139.2297 75.75313 140.1672Q75.75313 141.0422 75.28438 141.81564Q74.81563 142.58908 73.84688 143.05783Q75.08125 143.4172 75.745316 144.2922Q76.40938 145.1672 76.40938 146.3547Q76.40938 147.30783 76.01094 148.12814Q75.6125 148.94846 75.01875 149.39377Q74.425 149.83908 73.526566 150.06564Q72.62813 150.2922 71.33125 150.2922L66.14375 150.2922ZM67.94063 142.40158L70.87813 142.40158Q72.08125 142.40158 72.59688 142.24533Q73.28438 142.0422 73.63594 141.57346Q73.9875 141.1047 73.9875 140.38596Q73.9875 139.71408 73.65938 139.19846Q73.33125 138.68283 72.72969 138.48752Q72.12813 138.2922 70.65938 138.2922L67.94063 138.2922L67.94063 142.40158ZM67.94063 148.68283L71.33125 148.68283Q72.20625 148.68283 72.55 148.62033Q73.175 148.51096 73.59688 148.25314Q74.01875 147.99533 74.28438 147.49533Q74.55 146.99533 74.55 146.3547Q74.55 145.58908 74.15938 145.02658Q73.76875 144.46408 73.08125 144.23752Q72.39375 144.01096 71.09688 144.01096L67.94063 144.01096L67.94063 148.68283ZM85.19063 147.12033L86.90938 147.33908Q86.50313 148.83908 85.401566 149.67502Q84.3 150.51096 82.58125 150.51096Q80.425 150.51096 79.15938 149.18283Q77.89375 147.8547 77.89375 145.44846Q77.89375 142.96408 79.16719 141.58908Q80.44063 140.21408 82.4875 140.21408Q84.47188 140.21408 85.72188 141.55783Q86.97188 142.90158 86.97188 145.3547Q86.97188 145.49533 86.95625 145.7922L79.6125 145.7922Q79.70625 147.4172 80.53438 148.27658Q81.3625 149.13596 82.59688 149.13596Q83.50313 149.13596 84.151566 148.6594Q84.8 148.18283 85.19063 147.12033ZM79.70625 144.4172L85.20625 144.4172Q85.09688 143.18283 84.58125 142.55783Q83.78438 141.58908 82.50313 141.58908Q81.3625 141.58908 80.57344 142.36252Q79.78438 143.13596 79.70625 144.4172ZM92.47188 148.7922L92.70625 150.27658Q92.00313 150.4172 91.44063 150.4172Q90.53438 150.4172 90.03438 150.12814Q89.53438 149.83908 89.33125 149.37814Q89.12813 148.9172 89.12813 147.40158L89.12813 141.74533L87.89375 141.74533L87.89375 140.43283L89.12813 140.43283L89.12813 137.99533L90.78438 136.99533L90.78438 140.43283L92.47188 140.43283L92.47188 141.74533L90.78438 141.74533L90.78438 147.49533Q90.78438 148.21408 90.870316 148.4172Q90.95625 148.62033 91.15938 148.74533Q91.3625 148.87033 91.7375 148.87033Q92.00313 148.87033 92.47188 148.7922ZM97.65938 148.7922L97.89375 150.27658Q97.19063 150.4172 96.62813 150.4172Q95.72188 150.4172 95.22188 150.12814Q94.72188 149.83908 94.51875 149.37814Q94.31563 148.9172 94.31563 147.40158L94.31563 141.74533L93.08125 141.74533L93.08125 140.43283L94.31563 140.43283L94.31563 137.99533L95.97188 136.99533L95.97188 140.43283L97.65938 140.43283L97.65938 141.74533L95.97188 141.74533L95.97188 147.49533Q95.97188 148.21408 96.057816 148.4172Q96.14375 148.62033 96.34688 148.74533Q96.55 148.87033 96.925 148.87033Q97.19063 148.87033 97.65938 148.7922ZM105.94063 147.12033L107.65938 147.33908Q107.25313 148.83908 106.151566 149.67502Q105.05 150.51096 103.33125 150.51096Q101.175 150.51096 99.90938 149.18283Q98.64375 147.8547 98.64375 145.44846Q98.64375 142.96408 99.91719 141.58908Q101.19063 140.21408 103.2375 140.21408Q105.22188 140.21408 106.47188 141.55783Q107.72188 142.90158 107.72188 145.3547Q107.72188 145.49533 107.70625 145.7922L100.3625 145.7922Q100.45625 147.4172 101.28438 148.27658Q102.1125 149.13596 103.34688 149.13596Q104.25313 149.13596 104.901566 148.6594Q105.55 148.18283 105.94063 147.12033ZM100.45625 144.4172L105.95625 144.4172Q105.84688 143.18283 105.33125 142.55783Q104.53438 141.58908 103.25313 141.58908Q102.1125 141.58908 101.32344 142.36252Q100.53438 143.13596 100.45625 144.4172ZM109.55 150.2922L109.55 140.43283L111.05 140.43283L111.05 141.93283Q111.62813 140.88596 112.1125 140.55002Q112.59688 140.21408 113.19063 140.21408Q114.03438 140.21408 114.90938 140.76096L114.33125 142.30783Q113.72188 141.94846 113.09688 141.94846Q112.55 141.94846 112.120316 142.27658Q111.69063 142.6047 111.50313 143.18283Q111.22188 144.07346 111.22188 145.13596L111.22188 150.2922L109.55 150.2922ZM124.6125 148.7922L124.84688 150.27658Q124.14375 150.4172 123.58125 150.4172Q122.675 150.4172 122.175 150.12814Q121.675 149.83908 121.47188 149.37814Q121.26875 148.9172 121.26875 147.40158L121.26875 141.74533L120.03438 141.74533L120.03438 140.43283L121.26875 140.43283L121.26875 137.99533L122.925 136.99533L122.925 140.43283L124.6125 140.43283L124.6125 141.74533L122.925 141.74533L122.925 147.49533Q122.925 148.21408 123.01094 148.4172Q123.09688 148.62033 123.3 148.74533Q123.50313 148.87033 123.87813 148.87033Q124.14375 148.87033 124.6125 148.7922ZM125.51875 145.37033Q125.51875 142.63596 127.05 141.30783Q128.31563 140.21408 130.14375 140.21408Q132.175 140.21408 133.46407 141.55002Q134.75313 142.88596 134.75313 145.2297Q134.75313 147.13596 134.18282 148.2219Q133.6125 149.30783 132.52657 149.9094Q131.44063 150.51096 130.14375 150.51096Q128.08125 150.51096 126.8 149.18283Q125.51875 147.8547 125.51875 145.37033ZM127.2375 145.37033Q127.2375 147.26096 128.06563 148.19846Q128.89375 149.13596 130.14375 149.13596Q131.39375 149.13596 132.21407 148.19064Q133.03438 147.24533 133.03438 145.30783Q133.03438 143.4797 132.20625 142.5422Q131.37813 141.6047 130.14375 141.6047Q128.89375 141.6047 128.06563 142.5422Q127.2375 143.4797 127.2375 145.37033ZM135.89375 145.37033Q135.89375 142.63596 137.425 141.30783Q138.69063 140.21408 140.51875 140.21408Q142.55 140.21408 143.83907 141.55002Q145.12813 142.88596 145.12813 145.2297Q145.12813 147.13596 144.55782 148.2219Q143.9875 149.30783 142.90157 149.9094Q141.81563 150.51096 140.51875 150.51096Q138.45625 150.51096 137.175 149.18283Q135.89375 147.8547 135.89375 145.37033ZM137.6125 145.37033Q137.6125 147.26096 138.44063 148.19846Q139.26875 149.13596 140.51875 149.13596Q141.76875 149.13596 142.58907 148.19064Q143.40938 147.24533 143.40938 145.30783Q143.40938 143.4797 142.58125 142.5422Q141.75313 141.6047 140.51875 141.6047Q139.26875 141.6047 138.44063 142.5422Q137.6125 143.4797 137.6125 145.37033ZM146.8625 150.2922L146.8625 136.69846L148.53438 136.69846L148.53438 150.2922L146.8625 150.2922ZM150.3625 147.3547L152.01875 147.08908Q152.15938 148.08908 152.79219 148.61252Q153.425 149.13596 154.56563 149.13596Q155.72188 149.13596 156.27657 148.6672Q156.83125 148.19846 156.83125 147.57346Q156.83125 147.01096 156.34688 146.68283Q156.00313 146.46408 154.64375 146.12033Q152.8 145.65158 152.08907 145.31564Q151.37813 144.9797 151.01094 144.37814Q150.64375 143.77658 150.64375 143.05783Q150.64375 142.40158 150.94844 141.83908Q151.25313 141.27658 151.76875 140.90158Q152.15938 140.62033 152.83125 140.4172Q153.50313 140.21408 154.26875 140.21408Q155.44063 140.21408 156.31563 140.55002Q157.19063 140.88596 157.60469 141.45627Q158.01875 142.02658 158.175 142.9797L156.55 143.19846Q156.44063 142.44846 155.90157 142.01877Q155.3625 141.58908 154.39375 141.58908Q153.2375 141.58908 152.75313 141.9719Q152.26875 142.3547 152.26875 142.8547Q152.26875 143.18283 152.47188 143.44846Q152.675 143.71408 153.1125 143.88596Q153.3625 143.9797 154.58125 144.32346Q156.34688 144.7922 157.05 145.08908Q157.75313 145.38596 158.15157 145.96408Q158.55 146.5422 158.55 147.40158Q158.55 148.2297 158.06563 148.9719Q157.58125 149.71408 156.65938 150.11252Q155.7375 150.51096 154.58125 150.51096Q152.65938 150.51096 151.65157 149.71408Q150.64375 148.9172 150.3625 147.3547Z" fill-rule="nonzero" fill="#000000"></path><path d="M111.94063 167.7922L253.62457 264.83316" fill-rule="evenodd" stroke="#073763" stroke-width="2.0" stroke-linejoin="round" stroke-linecap="butt"></path><path d="M251.75786 267.55865L261.11276 269.9619L255.49129 262.1077Z" fill-rule="evenodd" fill="#073763" stroke="#073763" stroke-width="2.0" stroke-linecap="butt"></path><path d="M112.0 168.0L256.62793 373.80396" fill-rule="evenodd" stroke="#073763" stroke-width="2.0" stroke-linejoin="round" stroke-linecap="butt"></path><path d="M253.92511 375.70334L261.84647 381.22986L259.33075 371.90454Z" fill-rule="evenodd" fill="#073763" stroke="#073763" stroke-width="2.0" stroke-linecap="butt"></path><path d="M480.0 120.0L687.6221 120.0L687.6221 168.0L480.0 168.0Z" fill-rule="nonzero" stroke="#000000" stroke-width="1.0" stroke-linejoin="round" stroke-linecap="butt"></path><path d="M504.32812 140.0L504.32812 126.40625L509.4375 126.40625Q510.98438 126.40625 511.9297 126.8125Q512.875 127.21875 513.40625 128.07812Q513.9375 128.9375 513.9375 129.875Q513.9375 130.75 513.46875 131.52344Q513.0 132.29688 512.03125 132.76562Q513.2656 133.125 513.9297 134.0Q514.59375 134.875 514.59375 136.0625Q514.59375 137.01562 514.1953 137.83594Q513.7969 138.65625 513.2031 139.10156Q512.6094 139.54688 511.71094 139.77344Q510.8125 140.0 509.51562 140.0L504.32812 140.0ZM506.125 132.10938L509.0625 132.10938Q510.26562 132.10938 510.78125 131.95312Q511.46875 131.75 511.8203 131.28125Q512.1719 130.8125 512.1719 130.09375Q512.1719 129.42188 511.84375 128.90625Q511.51562 128.39062 510.91406 128.19531Q510.3125 128.0 508.84375 128.0L506.125 128.0L506.125 132.10938ZM506.125 138.39062L509.51562 138.39062Q510.39062 138.39062 510.73438 138.32812Q511.35938 138.21875 511.78125 137.96094Q512.2031 137.70312 512.46875 137.20312Q512.7344 136.70312 512.7344 136.0625Q512.7344 135.29688 512.34375 134.73438Q511.95312 134.17188 511.26562 133.94531Q510.57812 133.71875 509.28125 133.71875L506.125 133.71875L506.125 138.39062ZM523.375 136.82812L525.09375 137.04688Q524.6875 138.54688 523.58594 139.38281Q522.4844 140.21875 520.7656 140.21875Q518.6094 140.21875 517.34375 138.89062Q516.0781 137.5625 516.0781 135.15625Q516.0781 132.67188 517.35156 131.29688Q518.625 129.92188 520.6719 129.92188Q522.65625 129.92188 523.90625 131.26562Q525.15625 132.60938 525.15625 135.0625Q525.15625 135.20312 525.1406 135.5L517.7969 135.5Q517.8906 137.125 518.71875 137.98438Q519.5469 138.84375 520.78125 138.84375Q521.6875 138.84375 522.33594 138.36719Q522.9844 137.89062 523.375 136.82812ZM517.8906 134.125L523.3906 134.125Q523.28125 132.89062 522.7656 132.26562Q521.96875 131.29688 520.6875 131.29688Q519.5469 131.29688 518.7578 132.07031Q517.96875 132.84375 517.8906 134.125ZM530.65625 138.5L530.8906 139.98438Q530.1875 140.125 529.625 140.125Q528.71875 140.125 528.21875 139.83594Q527.71875 139.54688 527.5156 139.08594Q527.3125 138.625 527.3125 137.10938L527.3125 131.45312L526.0781 131.45312L526.0781 130.14062L527.3125 130.14062L527.3125 127.703125L528.96875 126.703125L528.96875 130.14062L530.65625 130.14062L530.65625 131.45312L528.96875 131.45312L528.96875 137.20312Q528.96875 137.92188 529.0547 138.125Q529.1406 138.32812 529.34375 138.45312Q529.5469 138.57812 529.9219 138.57812Q530.1875 138.57812 530.65625 138.5ZM535.84375 138.5L536.0781 139.98438Q535.375 140.125 534.8125 140.125Q533.90625 140.125 533.40625 139.83594Q532.90625 139.54688 532.7031 139.08594Q532.5 138.625 532.5 137.10938L532.5 131.45312L531.2656 131.45312L531.2656 130.14062L532.5 130.14062L532.5 127.703125L534.15625 126.703125L534.15625 130.14062L535.84375 130.14062L535.84375 131.45312L534.15625 131.45312L534.15625 137.20312Q534.15625 137.92188 534.2422 138.125Q534.3281 138.32812 534.53125 138.45312Q534.7344 138.57812 535.1094 138.57812Q535.375 138.57812 535.84375 138.5ZM544.125 136.82812L545.84375 137.04688Q545.4375 138.54688 544.33594 139.38281Q543.2344 140.21875 541.5156 140.21875Q539.3594 140.21875 538.09375 138.89062Q536.8281 137.5625 536.8281 135.15625Q536.8281 132.67188 538.10156 131.29688Q539.375 129.92188 541.4219 129.92188Q543.40625 129.92188 544.65625 131.26562Q545.90625 132.60938 545.90625 135.0625Q545.90625 135.20312 545.8906 135.5L538.5469 135.5Q538.6406 137.125 539.46875 137.98438Q540.2969 138.84375 541.53125 138.84375Q542.4375 138.84375 543.08594 138.36719Q543.7344 137.89062 544.125 136.82812ZM538.6406 134.125L544.1406 134.125Q544.03125 132.89062 543.5156 132.26562Q542.71875 131.29688 541.4375 131.29688Q540.2969 131.29688 539.5078 132.07031Q538.71875 132.84375 538.6406 134.125ZM547.7344 140.0L547.7344 130.14062L549.2344 130.14062L549.2344 131.64062Q549.8125 130.59375 550.2969 130.25781Q550.78125 129.92188 551.375 129.92188Q552.21875 129.92188 553.09375 130.46875L552.5156 132.01562Q551.90625 131.65625 551.28125 131.65625Q550.7344 131.65625 550.3047 131.98438Q549.875 132.3125 549.6875 132.89062Q549.40625 133.78125 549.40625 134.84375L549.40625 140.0L547.7344 140.0ZM565.5781 136.39062L567.21875 136.60938Q566.9531 138.29688 565.84375 139.25781Q564.7344 140.21875 563.1094 140.21875Q561.09375 140.21875 559.8672 138.89844Q558.6406 137.57812 558.6406 135.10938Q558.6406 133.51562 559.16406 132.32031Q559.6875 131.125 560.77344 130.52344Q561.8594 129.92188 563.125 129.92188Q564.7344 129.92188 565.75 130.73438Q566.7656 131.54688 567.0625 133.04688L565.4375 133.29688Q565.2031 132.29688 564.6094 131.79688Q564.0156 131.29688 563.1875 131.29688Q561.9219 131.29688 561.1328 132.20312Q560.34375 133.10938 560.34375 135.0625Q560.34375 137.04688 561.1094 137.94531Q561.875 138.84375 563.09375 138.84375Q564.0781 138.84375 564.7344 138.24219Q565.3906 137.64062 565.5781 136.39062ZM568.4531 140.0L568.4531 130.14062L569.9531 130.14062L569.9531 131.64062Q570.53125 130.59375 571.0156 130.25781Q571.5 129.92188 572.09375 129.92188Q572.9375 129.92188 573.8125 130.46875L573.2344 132.01562Q572.625 131.65625 572.0 131.65625Q571.4531 131.65625 571.02344 131.98438Q570.59375 132.3125 570.40625 132.89062Q570.125 133.78125 570.125 134.84375L570.125 140.0L568.4531 140.0ZM574.0625 135.07812Q574.0625 132.34375 575.59375 131.01562Q576.8594 129.92188 578.6875 129.92188Q580.71875 129.92188 582.0078 131.25781Q583.2969 132.59375 583.2969 134.9375Q583.2969 136.84375 582.72656 137.92969Q582.15625 139.01562 581.0703 139.61719Q579.9844 140.21875 578.6875 140.21875Q576.625 140.21875 575.34375 138.89062Q574.0625 137.5625 574.0625 135.07812ZM575.78125 135.07812Q575.78125 136.96875 576.6094 137.90625Q577.4375 138.84375 578.6875 138.84375Q579.9375 138.84375 580.7578 137.89844Q581.5781 136.95312 581.5781 135.01562Q581.5781 133.1875 580.75 132.25Q579.9219 131.3125 578.6875 131.3125Q577.4375 131.3125 576.6094 132.25Q575.78125 133.1875 575.78125 135.07812ZM584.3906 137.0625L586.0469 136.79688Q586.1875 137.79688 586.8203 138.32031Q587.4531 138.84375 588.59375 138.84375Q589.75 138.84375 590.3047 138.375Q590.8594 137.90625 590.8594 137.28125Q590.8594 136.71875 590.375 136.39062Q590.03125 136.17188 588.6719 135.82812Q586.8281 135.35938 586.1172 135.02344Q585.40625 134.6875 585.03906 134.08594Q584.6719 133.48438 584.6719 132.76562Q584.6719 132.10938 584.97656 131.54688Q585.28125 130.98438 585.7969 130.60938Q586.1875 130.32812 586.8594 130.125Q587.53125 129.92188 588.2969 129.92188Q589.46875 129.92188 590.34375 130.25781Q591.21875 130.59375 591.6328 131.16406Q592.0469 131.73438 592.2031 132.6875L590.5781 132.90625Q590.46875 132.15625 589.9297 131.72656Q589.3906 131.29688 588.4219 131.29688Q587.2656 131.29688 586.78125 131.67969Q586.2969 132.0625 586.2969 132.5625Q586.2969 132.89062 586.5 133.15625Q586.7031 133.42188 587.1406 133.59375Q587.3906 133.6875 588.6094 134.03125Q590.375 134.5 591.0781 134.79688Q591.78125 135.09375 592.1797 135.67188Q592.5781 136.25 592.5781 137.10938Q592.5781 137.9375 592.09375 138.67969Q591.6094 139.42188 590.6875 139.82031Q589.7656 140.21875 588.6094 140.21875Q586.6875 140.21875 585.6797 139.42188Q584.6719 138.625 584.3906 137.0625ZM593.71875 137.0625L595.375 136.79688Q595.5156 137.79688 596.14844 138.32031Q596.78125 138.84375 597.9219 138.84375Q599.0781 138.84375 599.6328 138.375Q600.1875 137.90625 600.1875 137.28125Q600.1875 136.71875 599.7031 136.39062Q599.3594 136.17188 598.0 135.82812Q596.15625 135.35938 595.4453 135.02344Q594.7344 134.6875 594.3672 134.08594Q594.0 133.48438 594.0 132.76562Q594.0 132.10938 594.3047 131.54688Q594.6094 130.98438 595.125 130.60938Q595.5156 130.32812 596.1875 130.125Q596.8594 129.92188 597.625 129.92188Q598.7969 129.92188 599.6719 130.25781Q600.5469 130.59375 600.96094 131.16406Q601.375 131.73438 601.53125 132.6875L599.90625 132.90625Q599.7969 132.15625 599.2578 131.72656Q598.71875 131.29688 597.75 131.29688Q596.59375 131.29688 596.1094 131.67969Q595.625 132.0625 595.625 132.5625Q595.625 132.89062 595.8281 133.15625Q596.03125 133.42188 596.46875 133.59375Q596.71875 133.6875 597.9375 134.03125Q599.7031 134.5 600.40625 134.79688Q601.1094 135.09375 601.5078 135.67188Q601.90625 136.25 601.90625 137.10938Q601.90625 137.9375 601.4219 138.67969Q600.9375 139.42188 600.0156 139.82031Q599.09375 140.21875 597.9375 140.21875Q596.0156 140.21875 595.0078 139.42188Q594.0 138.625 593.71875 137.0625ZM603.0781 135.92188L603.0781 134.23438L608.2031 134.23438L608.2031 135.92188L603.0781 135.92188ZM609.9219 143.78125L609.9219 130.14062L611.4531 130.14062L611.4531 131.42188Q611.9844 130.67188 612.66406 130.29688Q613.34375 129.92188 614.2969 129.92188Q615.5625 129.92188 616.53125 130.57031Q617.5 131.21875 617.9922 132.40625Q618.4844 133.59375 618.4844 135.0Q618.4844 136.51562 617.9375 137.72656Q617.3906 138.9375 616.3594 139.57812Q615.3281 140.21875 614.1875 140.21875Q613.34375 140.21875 612.6797 139.86719Q612.0156 139.51562 611.59375 138.98438L611.59375 143.78125L609.9219 143.78125ZM611.4375 135.125Q611.4375 137.03125 612.21094 137.9375Q612.9844 138.84375 614.0781 138.84375Q615.1875 138.84375 615.97656 137.90625Q616.7656 136.96875 616.7656 134.98438Q616.7656 133.10938 615.9922 132.17188Q615.21875 131.23438 614.1406 131.23438Q613.0781 131.23438 612.2578 132.23438Q611.4375 133.23438 611.4375 135.125ZM620.28125 140.0L620.28125 130.14062L621.78125 130.14062L621.78125 131.64062Q622.3594 130.59375 622.84375 130.25781Q623.3281 129.92188 623.9219 129.92188Q624.7656 129.92188 625.6406 130.46875L625.0625 132.01562Q624.4531 131.65625 623.8281 131.65625Q623.28125 131.65625 622.85156 131.98438Q622.4219 132.3125 622.2344 132.89062Q621.9531 133.78125 621.9531 134.84375L621.9531 140.0L620.28125 140.0ZM625.8906 135.07812Q625.8906 132.34375 627.4219 131.01562Q628.6875 129.92188 630.5156 129.92188Q632.5469 129.92188 633.83594 131.25781Q635.125 132.59375 635.125 134.9375Q635.125 136.84375 634.5547 137.92969Q633.9844 139.01562 632.89844 139.61719Q631.8125 140.21875 630.5156 140.21875Q628.4531 140.21875 627.1719 138.89062Q625.8906 137.5625 625.8906 135.07812ZM627.6094 135.07812Q627.6094 136.96875 628.4375 137.90625Q629.2656 138.84375 630.5156 138.84375Q631.7656 138.84375 632.58594 137.89844Q633.40625 136.95312 633.40625 135.01562Q633.40625 133.1875 632.5781 132.25Q631.75 131.3125 630.5156 131.3125Q629.2656 131.3125 628.4375 132.25Q627.6094 133.1875 627.6094 135.07812ZM636.8906 128.34375L636.8906 126.40625L638.5469 126.40625L638.5469 128.34375L636.8906 128.34375ZM634.7656 143.82812L635.0781 142.40625Q635.5781 142.53125 635.875 142.53125Q636.3906 142.53125 636.6406 142.19531Q636.8906 141.85938 636.8906 140.5L636.8906 130.14062L638.5469 130.14062L638.5469 140.53125Q638.5469 142.35938 638.0781 143.07812Q637.4844 144.0 636.0781 144.0Q635.40625 144.0 634.7656 143.82812ZM647.78125 136.82812L649.5 137.04688Q649.09375 138.54688 647.9922 139.38281Q646.8906 140.21875 645.1719 140.21875Q643.0156 140.21875 641.75 138.89062Q640.4844 137.5625 640.4844 135.15625Q640.4844 132.67188 641.7578 131.29688Q643.03125 129.92188 645.0781 129.92188Q647.0625 129.92188 648.3125 131.26562Q649.5625 132.60938 649.5625 135.0625Q649.5625 135.20312 649.5469 135.5L642.2031 135.5Q642.2969 137.125 643.125 137.98438Q643.9531 138.84375 645.1875 138.84375Q646.09375 138.84375 646.7422 138.36719Q647.3906 137.89062 647.78125 136.82812ZM642.2969 134.125L647.7969 134.125Q647.6875 132.89062 647.1719 132.26562Q646.375 131.29688 645.09375 131.29688Q643.9531 131.29688 643.16406 132.07031Q642.375 132.84375 642.2969 134.125ZM657.84375 136.39062L659.4844 136.60938Q659.21875 138.29688 658.1094 139.25781Q657.0 140.21875 655.375 140.21875Q653.3594 140.21875 652.1328 138.89844Q650.90625 137.57812 650.90625 135.10938Q650.90625 133.51562 651.4297 132.32031Q651.9531 131.125 653.03906 130.52344Q654.125 129.92188 655.3906 129.92188Q657.0 129.92188 658.0156 130.73438Q659.03125 131.54688 659.3281 133.04688L657.7031 133.29688Q657.46875 132.29688 656.875 131.79688Q656.28125 131.29688 655.4531 131.29688Q654.1875 131.29688 653.39844 132.20312Q652.6094 133.10938 652.6094 135.0625Q652.6094 137.04688 653.375 137.94531Q654.1406 138.84375 655.3594 138.84375Q656.34375 138.84375 657.0 138.24219Q657.65625 137.64062 657.84375 136.39062ZM664.3906 138.5L664.625 139.98438Q663.9219 140.125 663.3594 140.125Q662.4531 140.125 661.9531 139.83594Q661.4531 139.54688 661.25 139.08594Q661.0469 138.625 661.0469 137.10938L661.0469 131.45312L659.8125 131.45312L659.8125 130.14062L661.0469 130.14062L661.0469 127.703125L662.7031 126.703125L662.7031 130.14062L664.3906 130.14062L664.3906 131.45312L662.7031 131.45312L662.7031 137.20312Q662.7031 137.92188 662.78906 138.125Q662.875 138.32812 663.0781 138.45312Q663.28125 138.57812 663.65625 138.57812Q663.9219 138.57812 664.3906 138.5Z" fill-rule="nonzero" fill="#000000"></path><path d="M538.59375 157.39062L540.2344 157.60938Q539.96875 159.29688 538.8594 160.25781Q537.75 161.21875 536.125 161.21875Q534.1094 161.21875 532.8828 159.89844Q531.65625 158.57812 531.65625 156.10938Q531.65625 154.51562 532.1797 153.32031Q532.7031 152.125 533.78906 151.52344Q534.875 150.92188 536.1406 150.92188Q537.75 150.92188 538.7656 151.73438Q539.78125 152.54688 540.0781 154.04688L538.4531 154.29688Q538.21875 153.29688 537.625 152.79688Q537.03125 152.29688 536.2031 152.29688Q534.9375 152.29688 534.14844 153.20312Q533.3594 154.10938 533.3594 156.0625Q533.3594 158.04688 534.125 158.94531Q534.8906 159.84375 536.1094 159.84375Q537.09375 159.84375 537.75 159.24219Q538.40625 158.64062 538.59375 157.39062ZM540.8594 156.07812Q540.8594 153.34375 542.3906 152.01562Q543.65625 150.92188 545.4844 150.92188Q547.5156 150.92188 548.8047 152.25781Q550.09375 153.59375 550.09375 155.9375Q550.09375 157.84375 549.52344 158.92969Q548.9531 160.01562 547.8672 160.61719Q546.78125 161.21875 545.4844 161.21875Q543.4219 161.21875 542.1406 159.89062Q540.8594 158.5625 540.8594 156.07812ZM542.5781 156.07812Q542.5781 157.96875 543.40625 158.90625Q544.2344 159.84375 545.4844 159.84375Q546.7344 159.84375 547.5547 158.89844Q548.375 157.95312 548.375 156.01562Q548.375 154.1875 547.5469 153.25Q546.71875 152.3125 545.4844 152.3125Q544.2344 152.3125 543.40625 153.25Q542.5781 154.1875 542.5781 156.07812ZM551.8281 161.0L551.8281 147.40625L553.5 147.40625L553.5 161.0L551.8281 161.0ZM555.96875 161.0L555.96875 147.40625L557.6406 147.40625L557.6406 161.0L555.96875 161.0ZM566.59375 159.78125Q565.65625 160.57812 564.7969 160.89844Q563.9375 161.21875 562.9531 161.21875Q561.34375 161.21875 560.46875 160.42969Q559.59375 159.64062 559.59375 158.40625Q559.59375 157.67188 559.9219 157.07812Q560.25 156.48438 560.78125 156.125Q561.3125 155.76562 561.9844 155.57812Q562.4844 155.4375 563.46875 155.32812Q565.5 155.07812 566.4531 154.75Q566.4531 154.40625 566.4531 154.3125Q566.4531 153.29688 565.9844 152.875Q565.34375 152.3125 564.0781 152.3125Q562.90625 152.3125 562.34375 152.71875Q561.78125 153.125 561.5156 154.1875L559.875 153.95312Q560.1094 152.90625 560.6172 152.26562Q561.125 151.625 562.08594 151.27344Q563.0469 150.92188 564.3281 150.92188Q565.59375 150.92188 566.375 151.21875Q567.15625 151.51562 567.53125 151.96875Q567.90625 152.42188 568.0469 153.10938Q568.1406 153.53125 568.1406 154.64062L568.1406 156.875Q568.1406 159.20312 568.2422 159.82031Q568.34375 160.4375 568.6719 161.0L566.9219 161.0Q566.65625 160.48438 566.59375 159.78125ZM566.4531 156.0625Q565.5469 156.42188 563.71875 156.6875Q562.6875 156.82812 562.2656 157.01562Q561.84375 157.20312 561.6094 157.5625Q561.375 157.92188 561.375 158.35938Q561.375 159.03125 561.8828 159.47656Q562.3906 159.92188 563.3594 159.92188Q564.3281 159.92188 565.0781 159.49219Q565.8281 159.0625 566.1875 158.34375Q566.4531 157.76562 566.4531 156.67188L566.4531 156.0625ZM572.0781 161.0L570.53125 161.0L570.53125 147.40625L572.1875 147.40625L572.1875 152.25Q573.25 150.92188 574.8906 150.92188Q575.7969 150.92188 576.6094 151.28906Q577.4219 151.65625 577.9453 152.32031Q578.46875 152.98438 578.7656 153.92188Q579.0625 154.85938 579.0625 155.92188Q579.0625 158.45312 577.8125 159.83594Q576.5625 161.21875 574.8125 161.21875Q573.0625 161.21875 572.0781 159.76562L572.0781 161.0ZM572.0625 156.0Q572.0625 157.76562 572.53125 158.5625Q573.3281 159.84375 574.6719 159.84375Q575.7656 159.84375 576.5625 158.89844Q577.3594 157.95312 577.3594 156.0625Q577.3594 154.14062 576.59375 153.21875Q575.8281 152.29688 574.75 152.29688Q573.65625 152.29688 572.8594 153.25Q572.0625 154.20312 572.0625 156.0ZM580.28125 156.07812Q580.28125 153.34375 581.8125 152.01562Q583.0781 150.92188 584.90625 150.92188Q586.9375 150.92188 588.22656 152.25781Q589.5156 153.59375 589.5156 155.9375Q589.5156 157.84375 588.9453 158.92969Q588.375 160.01562 587.28906 160.61719Q586.2031 161.21875 584.90625 161.21875Q582.84375 161.21875 581.5625 159.89062Q580.28125 158.5625 580.28125 156.07812ZM582.0 156.07812Q582.0 157.96875 582.8281 158.90625Q583.65625 159.84375 584.90625 159.84375Q586.15625 159.84375 586.97656 158.89844Q587.7969 157.95312 587.7969 156.01562Q587.7969 154.1875 586.96875 153.25Q586.1406 152.3125 584.90625 152.3125Q583.65625 152.3125 582.8281 153.25Q582.0 154.1875 582.0 156.07812ZM591.2656 161.0L591.2656 151.14062L592.7656 151.14062L592.7656 152.64062Q593.34375 151.59375 593.8281 151.25781Q594.3125 150.92188 594.90625 150.92188Q595.75 150.92188 596.625 151.46875L596.0469 153.01562Q595.4375 152.65625 594.8125 152.65625Q594.2656 152.65625 593.83594 152.98438Q593.40625 153.3125 593.21875 153.89062Q592.9375 154.78125 592.9375 155.84375L592.9375 161.0L591.2656 161.0ZM603.9375 159.78125Q603.0 160.57812 602.1406 160.89844Q601.28125 161.21875 600.2969 161.21875Q598.6875 161.21875 597.8125 160.42969Q596.9375 159.64062 596.9375 158.40625Q596.9375 157.67188 597.2656 157.07812Q597.59375 156.48438 598.125 156.125Q598.65625 155.76562 599.3281 155.57812Q599.8281 155.4375 600.8125 155.32812Q602.84375 155.07812 603.7969 154.75Q603.7969 154.40625 603.7969 154.3125Q603.7969 153.29688 603.3281 152.875Q602.6875 152.3125 601.4219 152.3125Q600.25 152.3125 599.6875 152.71875Q599.125 153.125 598.8594 154.1875L597.21875 153.95312Q597.4531 152.90625 597.96094 152.26562Q598.46875 151.625 599.4297 151.27344Q600.3906 150.92188 601.6719 150.92188Q602.9375 150.92188 603.71875 151.21875Q604.5 151.51562 604.875 151.96875Q605.25 152.42188 605.3906 153.10938Q605.4844 153.53125 605.4844 154.64062L605.4844 156.875Q605.4844 159.20312 605.58594 159.82031Q605.6875 160.4375 606.0156 161.0L604.2656 161.0Q604.0 160.48438 603.9375 159.78125ZM603.7969 156.0625Q602.8906 156.42188 601.0625 156.6875Q600.03125 156.82812 599.6094 157.01562Q599.1875 157.20312 598.9531 157.5625Q598.71875 157.92188 598.71875 158.35938Q598.71875 159.03125 599.22656 159.47656Q599.7344 159.92188 600.7031 159.92188Q601.6719 159.92188 602.4219 159.49219Q603.1719 159.0625 603.53125 158.34375Q603.7969 157.76562 603.7969 156.67188L603.7969 156.0625ZM611.53125 159.5L611.7656 160.98438Q611.0625 161.125 610.5 161.125Q609.59375 161.125 609.09375 160.83594Q608.59375 160.54688 608.3906 160.08594Q608.1875 159.625 608.1875 158.10938L608.1875 152.45312L606.9531 152.45312L606.9531 151.14062L608.1875 151.14062L608.1875 148.70312L609.84375 147.70312L609.84375 151.14062L611.53125 151.14062L611.53125 152.45312L609.84375 152.45312L609.84375 158.20312Q609.84375 158.92188 609.9297 159.125Q610.0156 159.32812 610.21875 159.45312Q610.4219 159.57812 610.7969 159.57812Q611.0625 159.57812 611.53125 159.5ZM613.0625 149.3125L613.0625 147.40625L614.7344 147.40625L614.7344 149.3125L613.0625 149.3125ZM613.0625 161.0L613.0625 151.14062L614.7344 151.14062L614.7344 161.0L613.0625 161.0ZM616.5781 156.07812Q616.5781 153.34375 618.1094 152.01562Q619.375 150.92188 621.2031 150.92188Q623.2344 150.92188 624.52344 152.25781Q625.8125 153.59375 625.8125 155.9375Q625.8125 157.84375 625.2422 158.92969Q624.6719 160.01562 623.58594 160.61719Q622.5 161.21875 621.2031 161.21875Q619.1406 161.21875 617.8594 159.89062Q616.5781 158.5625 616.5781 156.07812ZM618.2969 156.07812Q618.2969 157.96875 619.125 158.90625Q619.9531 159.84375 621.2031 159.84375Q622.4531 159.84375 623.27344 158.89844Q624.09375 157.95312 624.09375 156.01562Q624.09375 154.1875 623.2656 153.25Q622.4375 152.3125 621.2031 152.3125Q619.9531 152.3125 619.125 153.25Q618.2969 154.1875 618.2969 156.07812ZM627.5781 161.0L627.5781 151.14062L629.0781 151.14062L629.0781 152.54688Q630.1719 150.92188 632.21875 150.92188Q633.1094 150.92188 633.8594 151.24219Q634.6094 151.5625 634.97656 152.08594Q635.34375 152.60938 635.5 153.3125Q635.59375 153.78125 635.59375 154.9375L635.59375 161.0L633.9219 161.0L633.9219 155.0Q633.9219 153.98438 633.72656 153.47656Q633.53125 152.96875 633.03125 152.67188Q632.53125 152.375 631.8594 152.375Q630.7969 152.375 630.02344 153.04688Q629.25 153.71875 629.25 155.625L629.25 161.0L627.5781 161.0Z" fill-rule="nonzero" fill="#000000"></path><path d="M583.81104 168.0L417.8704 265.5335" fill-rule="evenodd" stroke="#073763" stroke-width="2.0" stroke-linejoin="round" stroke-linecap="butt"></path><path d="M416.19644 262.68555L410.0457 270.13257L419.5443 268.38147Z" fill-rule="evenodd" fill="#073763" stroke="#073763" stroke-width="2.0" stroke-linecap="butt"></path><path d="M583.9975 167.99205L415.12527 374.32776" fill-rule="evenodd" stroke="#073763" stroke-width="2.0" stroke-linejoin="round" stroke-linecap="butt"></path><path d="M412.56885 372.2355L409.37683 381.35147L417.6817 376.42004Z" fill-rule="evenodd" fill="#073763" stroke="#073763" stroke-width="2.0" stroke-linecap="butt"></path></svg>

