<?xml version="1.0" encoding="UTF-8"?>
<svg id="Layer_1" data-name="Layer 1" xmlns="http://www.w3.org/2000/svg" viewBox="0 0 233 400">
  <defs>
    <style>
      .cls-1 {
        fill: none;
      }

      .cls-2 {
        fill: #e95420;
      }

      .cls-3 {
        fill: #fff;
      }
    </style>
  </defs>
  <rect class="cls-2" width="233" height="400"/>
  <g>
    <path class="cls-3" d="M42.06808,238.40737l8.14405-12.1682c.75612-1.10637,1.23227-1.13109,2.05125-.73948,17.94034,10.3328,34.02466,11.80606,50.61464,4.6327,16.49523-7.13059,26.41246-19.74457,31.1949-39.63742.509-1.79215,1.16561-1.7855,1.62414-1.72229l14.24543,3.09005c2.40789.60024,2.31837,1.26178,2.25266,1.74463-3.15353,23.30939-19.33689,43.79155-42.24346,53.45615-23.27893,9.99347-48.56672,7.79404-67.66077-5.87689-.38235-.34218-1.27084-1.24324-.22284-2.77924ZM113.06095,356.07829l14.60301.79461c2.45407.04848,2.52407-.60451,2.58882-1.08736,3.15401-23.30987-7.00653-47.34306-26.51626-62.72012-19.79542-15.80383-44.76229-20.3776-66.80752-12.25089-.45948.22812-1.55558.8602-.95706,2.6072l4.62198,13.89905c.43615,1.26796.88516,1.42194,1.78175,1.2575,20.04445-5.21155,35.94306-2.37338,50.03326,8.93272,14.00926,11.24242,20.21919,26.03018,19.54306,46.53799.01571,1.80593.6528,1.96562,1.10895,2.0293ZM122.42299,258.93419c-.66089-.0884-1.3175-.13307-1.96697-.13307-2.95927,0-5.7614.91437-8.04597,2.65282-2.78642,2.11865-4.59341,5.30375-5.08908,8.96789-.48186,3.55959.42187,7.07356,2.54406,9.89272,2.146,2.85053,5.32954,4.68973,8.96398,5.18018,7.34079.98471,14.11115-4.16506,15.10202-11.4867,1.00753-7.44711-4.04774-14.06823-11.50805-15.07385ZM195.36521,234.45997l-6.78036-12.95616c-.96706-2.13195-1.73033-1.92665-2.53073-1.65481-21.67526,9.32718-36.63538,29.84735-40.02556,54.90518-3.39256,25.07683,5.59666,48.84199,24.04648,63.57081.41377.36214.82517.49711,1.27941.46194.52662-.04562,1.06419-.33647,1.40273-.75944l9.52822-11.40876c.87849-1.10257.50424-1.66431.04523-2.14431-14.94584-14.68986-20.54012-29.27801-18.10604-47.26797,2.44741-18.08882,12.00467-31.05828,30.07738-40.81413,1.4294-.85829,1.19942-1.60633,1.06324-1.93235Z"/>
    <rect class="cls-1" x="27.74982" y="188.84531" width="177.56735" height="177.23061"/>
  </g>
</svg>